<?xml version="1.0" encoding="utf-8"?>
<!-- Generator: Adobe Illustrator 21.1.0, SVG Export Plug-In . SVG Version: 6.00 Build 0)  -->
<svg version="1.1" xmlns="http://www.w3.org/2000/svg" xmlns:xlink="http://www.w3.org/1999/xlink" x="0px" y="0px"
	 viewBox="0 0 792 612" style="enable-background:new 0 0 792 612;" xml:space="preserve">
<style type="text/css">
	.st0{fill:#5F4B8C;}
	.st1{fill:#F6C243;}
	.st2{fill:#D54F27;}
	.st3{fill:#00AEEF;}
</style>
<g id="Triangle">
	<g>
		<polygon class="st0" points="297.2,252 396,83.9 494.8,252 506.4,252 396,64.1 285.6,252 		"/>
		<polygon class="st0" points="579.9,377 568.3,377 659.9,533 132.1,533 223.7,377 212.1,377 114.6,543 677.4,543 		"/>
	</g>
	<g>
		<path class="st0" d="M267.4,285h-4l-3.1-7.9l-2.7-8l-2.6,8l-3.1,7.8h-4l-9.3-25.2h5.3l5.9,18.2l6.1-18.2h3.1l6.3,18.2l5.8-18.2
			h5.3L267.4,285z"/>
		<path class="st0" d="M317.5,272.5c-0.1,6.5-4.1,13-12.9,13c-8.9,0-13-6.4-13-13s4.2-13.3,13-13.3
			C313.3,259.3,317.6,266,317.5,272.5z M296.3,272.7c0.1,4.1,2.3,8.6,8.3,8.6c5.9,0,8.2-4.5,8.2-8.6c0.1-4.2-2.3-9-8.2-9
			C298.6,263.6,296.2,268.4,296.3,272.7z"/>
		<path class="st0" d="M356.7,285H351l-7.3-8.4h-4.6v8.4h-4.8v-25.2c4,0,8,0,12,0c5.9,0,9.1,4,9.1,8.4c0,3.5-1.6,6.9-6.4,7.9
			l7.6,8.6V285z M339.1,264.2v8.1h7.2c3,0,4.3-2,4.3-4s-1.3-4-4.3-4H339.1z"/>
		<path class="st0" d="M394.1,272.2c0.1,6.4-3.8,12.8-12.6,12.8c-3.1,0-6.8,0-9.9,0v-25.2c3.1,0,6.8,0,9.9,0
			C390.2,259.8,394,266,394.1,272.2z M376.3,280.4h5.2c5.7,0,8-4.2,7.9-8.3c-0.1-3.9-2.4-7.8-7.9-7.8h-5.2V280.4z"/>
		<path class="st0" d="M432.8,281.8c-2.6,2.6-5.9,3.7-9.6,3.7c-9.4,0-13.3-6.4-13.4-13c0-6.6,4.2-13.3,13.4-13.3
			c3.4,0,6.7,1.3,9.3,3.9l-3.2,3.1c-1.7-1.6-3.9-2.4-6.1-2.4c-6.1,0-8.7,4.5-8.7,8.7c0,4.2,2.4,8.5,8.7,8.5c2.2,0,4.7-0.9,6.3-2.6
			L432.8,281.8z"/>
		<path class="st0" d="M465.5,280.2h-13.2l-2.2,4.8h-5.1l11.3-25.2h5.2l11.3,25.2h-5.2L465.5,280.2z M458.9,265.1l-4.7,10.7h9.4
			L458.9,265.1z"/>
		<path class="st0" d="M509.9,266.8l-8.2,10.9h-0.9l-8-11V285H488v-25.2h5.5l7.9,10.8l7.9-10.8h5.4V285h-4.8V266.8z"/>
		<path class="st0" d="M544.3,277.6h-7.1v7.4h-4.8v-25.2c4,0,7.9,0,11.9,0C556.6,259.8,556.6,277.6,544.3,277.6z M537.2,273.2h7.1
			c6.1,0,6-8.9,0-8.9h-7.1V273.2z"/>
	</g>
</g>
<g id="WP_2018">
	<g>
		<path class="st1" d="M485.2,388.6c0-6.7,6.4-9.6,12.2-9.6c6.3,0,13.2,2.6,13.2,10.1c0,8-6,9.6-12.7,9.6c-2.6,0-6.9,0.7-6.9,4.1
			v2.7h19.6v5.6h-25.6c0-2.8,0-5.5,0-8.3c0-7.3,6.6-9.4,12.8-9.4c2.4,0,6.8-0.4,6.8-4.1c0-3.4-3.1-5.1-7.2-5.1
			c-3.1,0-6.3,1.6-6.4,4.4H485.2z"/>
		<path class="st1" d="M522.7,392.7c0-18.3,26.9-18.2,26.9,0v4.4c0,18.2-26.9,18.3-26.9,0V392.7z M528.5,397.1
			c0,11.1,15.4,11.1,15.4,0v-4.4c0-10.9-15.4-11.1-15.4,0V397.1z"/>
		<path class="st1" d="M492,441.4h4.6V421h-4.7v-5.2h10.4v25.6h4.2v4.9H492V441.4z"/>
		<path class="st1" d="M527.8,430.5c-2.7-1.4-3.9-3.7-3.9-6.1c0-6.2,5.8-9.4,12.5-9.4c6.7,0,12.7,3.2,12.7,9.4c0,2.1-1.2,4.7-4,5.8
			c3.2,1.3,4.6,4.5,4.7,6.9c0.1,7.2-6.5,10.1-13.4,10c-6.7,0-13.5-2.8-13.3-10C523.1,434.8,524.6,431.8,527.8,430.5z M529.2,437.3
			c0,2.4,2.5,4.6,7.3,4.6c4.7,0,7.3-2.2,7.3-4.6c0-3.1-3.4-4.4-7.3-4.4C532.8,432.8,529.2,434.2,529.2,437.3z M536.4,428.6
			c3.6,0,6.5-1.6,6.5-4.3c0.1-2.6-2.7-4.4-6.6-4.4c-4.4,0-6.6,2.3-6.5,4.4C530,426.9,533,428.6,536.4,428.6z"/>
	</g>
	<g>
		<path class="st2" d="M370.8,196.6c0,10,5.8,18.6,14.2,22.7l-12-33C371.6,189.5,370.8,193,370.8,196.6z"/>
		<path class="st2" d="M413,195.3c0-3.1-1.1-5.3-2.1-7c-1.3-2.1-2.5-3.8-2.5-5.9c0-2.3,1.8-4.5,4.2-4.5c0.1,0,0.2,0,0.3,0
			c-4.5-4.1-10.5-6.6-17-6.6c-8.8,0-16.6,4.5-21.1,11.4c0.6,0,1.1,0,1.6,0c2.6,0,6.7-0.3,6.7-0.3c1.4-0.1,1.5,1.9,0.2,2.1
			c0,0-1.4,0.2-2.9,0.2l9.2,27.3l5.5-16.5l-3.9-10.8c-1.4-0.1-2.6-0.2-2.6-0.2c-1.4-0.1-1.2-2.2,0.2-2.1c0,0,4.2,0.3,6.6,0.3
			c2.6,0,6.7-0.3,6.7-0.3c1.4-0.1,1.5,1.9,0.2,2.1c0,0-1.4,0.2-2.9,0.2l9.1,27.1l2.5-8.4C412.2,200,413,197.5,413,195.3z"/>
		<path class="st2" d="M396.4,198.8l-7.6,22c2.3,0.7,4.6,1,7.1,1c2.9,0,5.8-0.5,8.4-1.4c-0.1-0.1-0.1-0.2-0.2-0.3L396.4,198.8z"/>
		<path class="st2" d="M418.1,184.5c0.1,0.8,0.2,1.7,0.2,2.6c0,2.6-0.5,5.4-1.9,9l-7.7,22.3c7.5-4.4,12.5-12.5,12.5-21.8
			C421.2,192.2,420.1,188.1,418.1,184.5z"/>
		<path class="st2" d="M396,167.2c-16.2,0-29.4,13.2-29.4,29.4c0,16.2,13.2,29.4,29.4,29.4c16.2,0,29.4-13.2,29.4-29.4
			C425.4,180.4,412.2,167.2,396,167.2z M396,224.7c-15.5,0-28-12.6-28-28c0-15.5,12.6-28,28-28c15.5,0,28,12.6,28,28
			C424,212.1,411.5,224.7,396,224.7z"/>
	</g>
</g>
<g id="Managua__x2B__Waves">
	<g>
		<path class="st3" d="M606.3,505.3c-0.6-1.2-2.1-1.7-3.4-1.1c-3,1.6-6.2,2.3-10,2.3c-7.9,0-11.8-3.3-16.1-6.8
			c-4.3-3.6-8.8-7.2-16.9-7.2c-7.5,0-12,3.6-16.3,7c-4.5,3.6-8.7,7-16.7,7c-7.9,0-11.8-3.3-16.1-6.8c-4.3-3.6-8.8-7.2-16.9-7.2
			c-7.5,0-12,3.6-16.3,7c-4.5,3.6-8.7,7-16.7,7c-7.9,0-11.8-3.3-16.1-6.8c-4.3-3.6-8.8-7.2-16.9-7.2c-7.5,0-12,3.6-16.3,7
			c-4.5,3.6-8.7,7-16.7,7c-7.9,0-11.8-3.3-16.1-6.8c-4.3-3.6-8.8-7.2-16.9-7.2c-7.5,0-12,3.6-16.3,7c-4.5,3.6-8.7,7-16.7,7
			c-7.9,0-11.8-3.3-16.1-6.8c-4.3-3.6-8.8-7.2-16.9-7.2c-7.5,0-12,3.6-16.3,7c-4.5,3.6-8.7,7-16.7,7c-7.9,0-11.8-3.3-16.1-6.8
			c-4.3-3.5-8.7-7.2-16.8-7.2c0,0,0,0,0,0c0,0,0,0-0.1,0c0,0,0,0-0.1,0c0,0,0,0,0,0c-8.1,0-12.5,3.7-16.8,7.2
			c-4.2,3.5-8.2,6.8-16.1,6.8c-3.8,0-6.9-0.7-10-2.3c-1.2-0.6-2.7-0.1-3.4,1.1s-0.1,2.7,1.1,3.4c3.7,1.9,7.7,2.8,12.2,2.8
			c9.7,0,14.8-4.2,19.2-7.9c4-3.3,7.4-6.1,13.7-6.1c6.3,0,9.8,2.8,13.7,6.1c4.5,3.7,9.6,7.9,19.2,7.9c9.8,0,15.1-4.3,19.8-8.1
			c4-3.2,7.4-5.9,13.2-5.9c6.4,0,9.8,2.8,13.8,6.1c4.5,3.7,9.6,7.9,19.2,7.9c9.8,0,15.1-4.3,19.8-8.1c4-3.2,7.4-5.9,13.2-5.9
			c6.4,0,9.8,2.8,13.8,6.1c4.5,3.7,9.6,7.9,19.2,7.9c9.8,0,15.1-4.3,19.8-8.1c4-3.2,7.4-5.9,13.2-5.9c6.4,0,9.8,2.8,13.8,6.1
			c4.5,3.7,9.6,7.9,19.2,7.9c9.8,0,15.1-4.3,19.8-8.1c4-3.2,7.4-5.9,13.2-5.9c6.4,0,9.8,2.8,13.8,6.1c4.5,3.7,9.6,7.9,19.2,7.9
			c9.8,0,15.1-4.3,19.8-8.1c4-3.2,7.4-5.9,13.2-5.9c6.4,0,9.8,2.8,13.8,6.1c4.5,3.7,9.6,7.9,19.2,7.9c4.5,0,8.5-0.9,12.2-2.8
			C606.5,508,607,506.5,606.3,505.3z"/>
		<path class="st3" d="M250.9,479.7c3.7,1.9,7.7,2.8,12.2,2.8c9.7,0,14.8-4.2,19.2-7.9c4-3.3,7.4-6.1,13.7-6.1
			c6.3,0,9.8,2.8,13.7,6.1c4.5,3.7,9.6,7.9,19.2,7.9c9.8,0,15.1-4.3,19.8-8.1c4-3.2,7.4-5.9,13.2-5.9c6.4,0,9.8,2.8,13.8,6.1
			c4.5,3.7,9.6,7.9,19.2,7.9c9.8,0,15.1-4.3,19.8-8.1c4-3.2,7.4-5.9,13.2-5.9c6.4,0,9.8,2.8,13.8,6.1c4.5,3.7,9.6,7.9,19.2,7.9
			c9.8,0,15.1-4.3,19.8-8.1c4-3.2,7.4-5.9,13.2-5.9c6.4,0,9.8,2.8,13.8,6.1c4.5,3.7,9.6,7.9,19.2,7.9c4.5,0,8.5-0.9,12.2-2.8
			c1.2-0.6,1.7-2.1,1.1-3.4c-0.6-1.2-2.1-1.7-3.4-1.1c-3,1.6-6.2,2.3-10,2.3c-7.9,0-11.8-3.3-16.1-6.8c-4.3-3.6-8.8-7.2-16.9-7.2
			c-7.5,0-12,3.6-16.3,7c-4.5,3.6-8.7,7-16.7,7c-7.9,0-11.8-3.3-16.1-6.8c-4.3-3.6-8.8-7.2-16.9-7.2c-7.5,0-12,3.6-16.3,7
			c-4.5,3.6-8.7,7-16.7,7c-7.9,0-11.8-3.3-16.1-6.8c-4.3-3.6-8.8-7.2-16.9-7.2c-7.5,0-12,3.6-16.3,7c-4.5,3.6-8.7,7-16.7,7
			c-7.9,0-11.8-3.3-16.1-6.8c-4.3-3.5-8.7-7.2-16.8-7.2c0,0,0,0,0,0c0,0,0,0-0.1,0c0,0,0,0-0.1,0c0,0,0,0,0,0
			c-8.1,0-12.5,3.7-16.8,7.2c-4.2,3.5-8.2,6.8-16.1,6.8c-3.8,0-6.9-0.7-10-2.3c-1.2-0.6-2.7-0.1-3.4,1.1
			C249.1,477.5,249.6,479,250.9,479.7z"/>
		<path class="st3" d="M218.5,488c3.5-2.8,6.7-4.5,11.8-4.5c5.8,0,9.2,2.8,13.2,5.9c4.7,3.8,10,8.1,19.8,8.1
			c9.7,0,14.8-4.2,19.2-7.9c3.9-3.2,7.3-6,13.6-6.1c6.3,0.1,9.7,2.9,13.6,6.1c4.5,3.7,9.6,7.9,19.2,7.9c9.8,0,15.1-4.3,19.8-8.1
			c4-3.2,7.4-5.9,13.2-5.9c6.4,0,9.8,2.8,13.8,6.1c4.5,3.7,9.6,7.9,19.2,7.9c9.8,0,15.1-4.3,19.8-8.1c4-3.2,7.4-5.9,13.2-5.9
			c6.4,0,9.8,2.8,13.8,6.1c4.5,3.7,9.6,7.9,19.2,7.9c9.8,0,15.1-4.3,19.8-8.1c4-3.2,7.4-5.9,13.2-5.9c6.4,0,9.8,2.8,13.8,6.1
			c4.5,3.7,9.6,7.9,19.2,7.9c9.8,0,15.1-4.3,19.8-8.1c4-3.2,7.4-5.9,13.2-5.9c5.1,0,8.3,1.7,11.8,4.5c1.1,0.9,2.7,0.7,3.5-0.4
			c0.9-1.1,0.7-2.7-0.4-3.5c-3.7-2.9-8-5.6-14.9-5.6c-7.5,0-12,3.6-16.3,7c-4.5,3.6-8.7,7-16.7,7c-7.9,0-11.8-3.3-16.1-6.8
			c-4.3-3.6-8.8-7.2-16.9-7.2c-7.5,0-12,3.6-16.3,7c-4.5,3.6-8.7,7-16.7,7c-7.9,0-11.8-3.3-16.1-6.8c-4.3-3.6-8.8-7.2-16.9-7.2
			c-7.5,0-12,3.6-16.3,7c-4.5,3.6-8.7,7-16.7,7c-7.9,0-11.8-3.3-16.1-6.8c-4.3-3.6-8.8-7.2-16.9-7.2c-7.5,0-12,3.6-16.3,7
			c-4.5,3.6-8.7,7-16.7,7c-7.9,0-11.8-3.3-16.1-6.8c-4.2-3.5-8.6-7.1-16.5-7.2c0,0-0.1,0-0.1,0c-0.1,0-0.1,0-0.2,0
			c-0.1,0-0.1,0-0.2,0c0,0-0.1,0-0.1,0c-7.9,0.1-12.2,3.7-16.5,7.2c-4.2,3.5-8.2,6.8-16.1,6.8c-8,0-12.2-3.4-16.7-7
			c-4.3-3.5-8.8-7-16.3-7c-6.9,0-11.2,2.7-14.9,5.6c-1.1,0.9-1.3,2.4-0.4,3.5C215.9,488.7,217.5,488.9,218.5,488z"/>
	</g>
	<g>
		<polygon class="st3" points="310.5,366 238.5,366 238.5,294 274.5,330 310.5,294 		"/>
		<polygon class="st3" points="319.5,366 355.5,294 391.5,366 		"/>
		<polygon class="st3" points="400.5,449 436.5,377 472.5,449 		"/>
		<polygon class="st3" points="481.5,366 517.5,294 553.5,366 		"/>
		<polygon class="st3" points="400.5,366 400.5,294 454.5,348 454.5,294 472.5,294 472.5,366 		"/>
		<path class="st3" d="M274.5,377c-19.9,0-36,16.1-36,36s16.1,36,36,36s36-16.1,36-36h-36V377z"/>
		<path class="st3" d="M319.5,377v36c0,19.9,16.1,36,36,36s36-16.1,36-36v-36H319.5z"/>
	</g>
</g>
</svg>
