<?xml version="1.0" encoding="UTF-8"?>
<svg width="133px" height="183px" viewBox="0 0 133 183" version="1.1" xmlns="http://www.w3.org/2000/svg" xmlns:xlink="http://www.w3.org/1999/xlink">
    <!-- Generator: Sketch 52.6 (67491) - http://www.bohemiancoding.com/sketch -->
    <title>Group 37</title>
    <desc>Created with Sketch.</desc>
    <defs>
        <polygon id="path-1" points="0.0117893939 0.237116379 61.7769409 0.237116379 61.7769409 55 0.0117893939 55"></polygon>
        <polygon id="path-3" points="0 0.381205443 8.55696838 0.381205443 8.55696838 28.9340607 0 28.9340607"></polygon>
        <polygon id="path-5" points="0.251411574 0.0939933612 16.9407297 0.0939933612 16.9407297 24.7491204 0.251411574 24.7491204"></polygon>
        <polygon id="path-7" points="0.138743321 0.12336 7.64958609 0.12336 7.64958609 11.636304 0.138743321 11.636304"></polygon>
    </defs>
    <g id="Page-1" stroke="none" stroke-width="1" fill="none" fill-rule="evenodd">
        <g id="Thank-you-page" transform="translate(-654.000000, -97.000000)">
            <g id="Group-37" transform="translate(654.000000, 97.000000)">
                <path d="M44.4545052,95.5894299 C46.8083841,95.4487577 47.0862662,98.9811924 44.733779,99.264905 C44.733779,99.264905 42.3664467,99.5481439 39.7346857,99.6888161 L55.6421568,148 L65.2033402,118.727872 L58.3977817,99.6888161 C56.0439027,99.5481439 53.8157434,99.264905 53.8157434,99.264905 C51.4609367,99.1228119 51.7369631,95.4487577 54.0926976,95.5894299 C54.0926976,95.5894299 61.305569,96.1563814 65.5981275,96.1563814 C70.1662484,96.1563814 77.2422664,95.5894299 77.2422664,95.5894299 C79.5970732,95.4487577 79.8740274,98.9811924 77.5201485,99.264905 C77.5201485,99.264905 75.1504966,99.5481439 72.5210552,99.6888161 L88.3083736,147.632452 L92.8147945,133.052752 C94.8170297,126.681297 95.9907218,122.166999 95.9907218,118.350378 C95.9907218,112.836692 94.0511144,109.020071 92.3893891,106.050325 C90.1751471,102.37485 88.0982224,99.264905 88.0982224,95.5894299 C88.0982224,91.4905173 91.1433271,87.6738963 95.4344938,87.6738963 C95.6284082,87.6738963 95.8116526,87.6975785 96,87.7098932 C88.2276532,80.4394624 77.87272,76 66.4999684,76 C51.2373321,76 37.8113152,83.9951057 30,96.102386 C31.0257048,96.135541 31.9920292,96.1563814 32.8112941,96.1563814 C37.379879,96.1563814 44.4545052,95.5894299 44.4545052,95.5894299" id="Fill-1" fill="#F1F1F1"></path>
                <path d="M82,162.514808 C81.8824383,162.32722 81.7742069,162.127995 81.6846361,161.911082 L68.1827701,125 L55,163.213957 C58.9369169,164.369742 63.0991603,165 67.4111549,165 C72.5264877,165 77.4342214,164.119314 82,162.514808" id="Fill-3" fill="#F1F1F1"></path>
                <path d="M39.4571956,162.237186 C36.8230566,160.442811 34.3457674,158.382182 32.0946227,156.11195 C29.8430098,153.84219 27.7992814,151.344416 26.0196223,148.688494 C24.2235759,146.008025 22.6808301,143.142972 21.4349283,140.172174 C18.8424599,133.992177 17.5281996,127.425546 17.5281996,120.654977 C17.5281996,113.883935 18.8424599,107.317304 21.4349283,101.137307 C22.6808301,98.1665085 24.2235759,95.3014559 26.0196223,92.6209865 C27.7992814,89.9650652 29.8430098,87.4672907 32.0946227,85.1975308 C34.3457674,82.9277709 36.8230566,80.8666702 39.4571956,79.0722947 C42.1156813,77.2613964 44.9577047,75.7063653 47.9036702,74.4496888 C54.0329828,71.8357826 60.5457579,70.5106545 67.2612671,70.5106545 C73.976308,70.5106545 80.4890831,71.8357826 86.6183957,74.4496888 C89.5648295,75.7063653 92.4063846,77.2613964 95.0653386,79.0722947 C97.6994775,80.8666702 100.176299,82.9277709 102.427911,85.1975308 C104.391108,87.1764895 106.184345,89.337199 107.794513,91.6168726 C106.824386,91.110331 105.737675,90.708591 104.419669,90.3710539 C104.073195,90.282775 103.660703,90.1973285 103.19905,90.2313183 C103.035646,90.205826 102.867091,90.217628 102.703686,90.2648359 L102.257015,90.39513 C102.058963,90.4531958 101.893686,90.5495001 101.750882,90.7000936 C101.729345,90.7194488 101.705466,90.7364437 101.682524,90.7539107 C101.569218,90.8398292 101.397385,90.9710674 101.238663,91.1688689 C100.721293,91.8132579 100.555547,92.5256264 100.475484,93.0043153 C100.25683,94.3129207 100.22546,95.5242776 100.378564,96.708726 C100.538692,97.9469914 100.945096,99.1852569 101.586073,100.38906 C102.069264,101.295926 102.667634,102.192878 103.448137,103.177164 C102.552923,104.071283 101.856229,105.035742 101.321067,105.82742 C100.922622,106.41752 101.003622,107.13461 101.52146,107.611882 L101.521929,107.612354 L101.653963,107.735567 C101.750882,107.827623 101.847802,107.91779 101.947998,108.005597 C101.988732,108.057526 102.032276,108.105678 102.077692,108.146749 C102.52483,108.554626 102.935449,108.92096 103.401784,109.262273 C103.434091,109.290598 103.466865,109.317507 103.500108,109.341583 C103.563784,109.398232 103.633079,109.448745 103.707056,109.492176 C103.839559,109.609252 103.968316,109.698947 104.072727,109.77212 L104.208039,109.86748 C104.523611,110.090774 104.849952,110.321621 105.215623,110.530752 C105.220773,110.534057 105.226391,110.536889 105.23201,110.540194 C105.236692,110.543026 105.240906,110.544914 105.24512,110.547747 C105.260102,110.556244 105.280235,110.566158 105.303178,110.577488 C105.396351,110.638386 105.494206,110.696924 105.592062,110.755462 C105.07516,113.494469 104.218807,116.47943 102.893778,119.819867 L89.4281127,159.07614 C102.536067,151.370852 111.350554,137.05267 111.350554,120.653088 C111.350554,117.801254 111.08227,115.012678 110.57286,112.310493 C111.366473,112.383665 112.038351,112.352036 112.657791,112.205219 C113.080115,113.04741 113.660224,113.782438 114.38782,114.39567 C115.157086,115.043835 116.039658,115.374291 116.745248,115.58956 C116.910525,117.262611 116.994334,118.952657 116.994334,120.654977 C116.994334,127.425546 115.679606,133.992177 113.087138,140.172174 C111.841236,143.142972 110.29849,146.008025 108.502444,148.688494 C106.722785,151.344416 104.679056,153.84219 102.427911,156.11195 C100.176299,158.382182 97.6994775,160.442811 95.0653386,162.237186 C92.4063846,164.048085 89.5648295,165.603116 86.6183957,166.859792 C80.4890831,169.473698 73.976308,170.799299 67.2612671,170.799299 C60.5457579,170.799299 54.0329828,169.473698 47.9036702,166.859792 C44.9577047,165.603116 42.1156813,164.048085 39.4571956,162.237186 Z M32.2711372,57.8674118 C32.3324725,57.6814124 32.4055129,57.4925804 32.4893222,57.3061089 L32.5731314,57.1432413 C32.6297846,57.028998 32.6850332,56.9138105 32.7473049,56.8075926 C32.7632239,56.7811561 32.7805476,56.7566079 32.7974031,56.7311156 L32.8596748,56.6381159 C32.9182008,56.5479486 32.9757904,56.4573093 33.0399349,56.3723349 C33.0619407,56.3435381 33.0858193,56.3166295 33.1087615,56.2892489 L33.1658829,56.2222135 C33.229091,56.1462087 33.2922991,56.0702038 33.3592529,56.0012802 C33.3901546,55.9696508 33.422461,55.9403819 33.4547673,55.9106408 L33.4964379,55.8719303 C33.5657327,55.8072553 33.6345593,55.7439966 33.7019812,55.6901795 C33.746461,55.6552456 33.7923454,55.6226721 33.8480622,55.5830174 C33.9220391,55.5301445 33.9964842,55.4791598 34.0732703,55.432896 C34.1214957,55.4040992 34.1701894,55.3771906 34.2212241,55.350282 C34.2994148,55.308739 34.378542,55.2700285 34.4576692,55.2360387 C34.5082356,55.214323 34.5583339,55.1935515 34.6121778,55.1737242 C34.6959871,55.1425669 34.7807328,55.1156584 34.8659466,55.0920544 L34.8879524,55.0859173 L34.9577154,55.0684504 C36.0224207,54.8064461 37.2112012,55.0939427 38.30634,55.8790115 L50.206786,64.4179919 L54.7558962,67.681952 C50.3341386,68.7394109 46.0640805,70.3586448 42.029531,72.5099126 C39.7694904,73.7151325 37.590918,75.0827479 35.5490623,76.5778247 L26.232657,76.2105466 L32.2711372,57.8674118 Z M64.0849431,46.1909887 C64.8841744,45.1014284 65.9254693,44.4551511 67.018267,44.3711209 L67.0786659,44.365928 C67.0899029,44.365928 67.1011399,44.3654559 67.1128451,44.3649839 C67.2018046,44.3607351 67.290296,44.3593189 67.3792555,44.3630955 C67.4335677,44.3649839 67.4874116,44.3687605 67.5431284,44.3734813 C67.6306833,44.3815066 67.7173018,44.3933086 67.8039203,44.4079431 C67.8610417,44.4178568 67.9176949,44.4282426 67.9706024,44.4405166 C68.0572209,44.460344 68.1433712,44.4848921 68.2398221,44.5151052 C68.293666,44.5321001 68.3470417,44.5481508 68.399481,44.5675061 C68.4856313,44.5996075 68.5699088,44.637846 68.6565273,44.6779728 L68.7070938,44.7011047 C68.745955,44.7190437 68.7848163,44.7360386 68.8232094,44.7563381 C68.9088915,44.8011856 68.9927007,44.8535865 69.07651,44.9059874 L69.1532961,44.9536674 C69.1837296,44.9720785 69.2146314,44.9900176 69.2431921,45.0098449 C69.328406,45.069327 69.4108106,45.1368344 69.4978973,45.2071743 L69.584984,45.276098 C69.6079262,45.294037 69.6313366,45.3110319 69.654747,45.3318034 C69.746984,45.4134732 69.8345389,45.5050567 69.9239667,45.5966402 L70.0536603,45.7245738 C70.1903771,45.8751673 70.3181979,46.0318978 70.4347818,46.1909887 L82.5777596,62.7591033 L76.6254296,67.0295376 C70.4085621,65.9314799 64.1064807,65.931952 57.8872721,67.0314259 L51.9396243,62.7638241 L64.0849431,46.1909887 Z M96.215726,55.8709861 C97.311333,55.0854452 98.5001134,54.7979486 99.5643505,55.060425 L99.6252175,55.0750595 C99.6355181,55.077892 99.6453505,55.0807245 99.6556511,55.0835569 C99.7413332,55.107633 99.826547,55.1340695 99.9094199,55.1647547 C99.961391,55.1841099 100.012426,55.2048815 100.062056,55.2265971 C100.143524,55.2620031 100.223588,55.3007137 100.30131,55.3417846 C100.351408,55.3686932 100.401507,55.3960738 100.449264,55.4248707 C100.52605,55.4706624 100.600495,55.521647 100.688986,55.5853778 C100.73253,55.616063 100.776073,55.6472203 100.817275,55.6797938 C100.888911,55.7369154 100.956801,55.79923 101.026564,55.8639049 L101.067299,55.9021434 C101.099605,55.9318844 101.131911,55.9611534 101.162345,55.9923106 C101.229767,56.0617064 101.292975,56.1377112 101.357119,56.2146603 L101.414241,56.2821677 C101.437651,56.3095483 101.46153,56.3364569 101.482599,56.3643096 C101.544871,56.4469235 101.601992,56.5366187 101.663796,56.6319789 L101.725599,56.7245065 C101.742455,56.7495267 101.759778,56.7740749 101.774293,56.798623 C101.837033,56.9053131 101.892281,57.0205006 101.948466,57.1342718 L102.032276,57.2971394 C102.116085,57.484083 102.190062,57.673387 102.251397,57.8598585 L108.290345,76.2048817 L98.9664487,76.5726319 C96.9264659,75.0794433 94.7497663,73.7132442 92.4915985,72.5094406 C88.4537716,70.3567564 84.1813724,68.7370505 79.7572738,67.6795916 L96.215726,55.8709861 Z M32.6878424,78.8268132 C25.508339,84.8769886 19.9511767,92.77158 16.6765291,101.560763 L11.4733321,81.7551245 C11.4335344,81.604531 11.4040373,81.456298 11.3792223,81.2830447 L11.3684535,81.1772988 C11.3572165,81.0824107 11.3450431,80.9875227 11.3408292,80.8954671 L11.3427021,80.7382645 C11.3427021,80.6613155 11.3412974,80.5843665 11.3469159,80.510722 L11.3647078,80.3667377 C11.3736038,80.2930932 11.3815633,80.2203929 11.3946732,80.1533576 C11.4012281,80.1222003 11.4091876,80.0915151 11.4279159,80.0178706 C11.443835,79.9522515 11.4606905,79.8871045 11.4822281,79.8219575 C11.4948697,79.7841911 11.5098524,79.747841 11.5267079,79.7029934 C11.5505865,79.6425672 11.5749333,79.582613 11.6030258,79.5250193 C11.6212859,79.4867808 11.6409506,79.4504307 11.6606154,79.4150247 C11.6915171,79.3583751 11.7242917,79.3040859 11.7608119,79.2483805 C11.7823495,79.215807 11.8043553,79.1837055 11.8254246,79.1549087 C11.8638177,79.1029799 11.9045518,79.0534115 11.9494998,79.0024269 L11.9555865,78.9944015 L11.9925749,78.9547468 C12.5361646,78.3674795 13.3822167,78.06346 14.3738815,78.1050031 L23.0305816,78.4458447 L23.0305816,78.4463168 L32.6878424,78.8268132 Z M120.013341,78.1050031 C120.99845,78.0672367 121.851057,78.3679516 122.395115,78.9547468 L122.440531,79.0047873 C122.482202,79.0529394 122.522468,79.1020357 122.561797,79.1553808 C122.585208,79.186538 122.607214,79.2191115 122.628283,79.2507409 C122.663399,79.3040859 122.696173,79.3583751 122.726138,79.4136084 C122.746271,79.4504307 122.765936,79.4867808 122.784196,79.5245472 C122.812289,79.582613 122.837104,79.6425672 122.868942,79.7247091 C122.881584,79.7568105 122.894225,79.7889119 122.905462,79.8233737 C122.926531,79.8871045 122.943387,79.9522515 122.970543,80.061302 C122.978034,80.0915151 122.986462,80.1222003 122.992081,80.1495809 C123.005659,80.2203929 123.014086,80.2930932 123.022514,80.3657935 L123.040306,80.5069454 C123.045925,80.5857827 123.044988,80.6665084 123.044988,80.7477061 L123.046393,80.8954671 C123.042647,80.9870506 123.030474,81.0809945 123.018768,81.178715 L123.005659,81.3123136 C122.983653,81.4572421 122.953688,81.6050031 122.914358,81.7555966 L121.615081,86.700161 C121.095369,86.4820601 120.516196,86.4315475 119.905653,86.5604253 C118.807236,86.795049 117.932155,87.3832605 117.221415,87.9275686 C115.813982,89.005799 114.542329,90.3370642 113.442039,91.8845419 L113.291276,92.0936733 C113.280039,92.1087799 113.267398,92.127191 113.256161,92.1432417 C110.19127,87.1335303 106.329022,82.6138378 101.828137,78.8220924 L111.492889,78.4411239 L111.492889,78.4406519 L120.013341,78.1050031 Z M120.693179,101.726935 C121.503179,101.469179 122.321138,101.33322 123.123647,101.322362 C123.62978,101.314337 124.154173,101.367682 124.705722,101.422915 C124.906584,101.442743 125.107445,101.46257 125.309243,101.480037 C126.255491,101.561235 127.36374,101.685392 128.40878,101.990827 C129.045075,102.177771 129.774544,102.427501 130.357931,102.869368 C130.444081,102.934515 130.5307,103.027987 130.636515,103.170083 L130.659457,103.249864 C130.654307,103.636498 130.480601,104.01605 129.796081,104.539114 C129.393422,104.846438 128.906017,105.110331 128.216347,105.393579 C127.665734,105.619705 127.094052,105.813258 126.51722,105.969044 C125.77511,106.17015 124.966983,106.351429 123.974849,106.539789 C122.988335,106.727205 121.962023,106.835783 120.83645,106.871189 C120.419277,106.884879 120.021768,107.158686 119.823716,107.528796 C119.555901,108.029673 119.681381,108.652346 120.121497,109.008767 L120.449242,109.270299 C120.665554,109.44308 120.882335,109.614445 121.091624,109.795724 C121.802832,110.410372 122.256526,110.931076 122.56367,111.483409 C122.752358,111.823779 122.761722,111.988062 122.749081,112.09428 C122.740653,112.164148 122.722861,112.310021 122.320202,112.612152 C122.120745,112.762273 121.846844,112.889263 121.557023,113.023334 L121.396427,113.098394 C120.987682,113.290059 120.492317,113.373617 119.967924,113.461896 C119.879901,113.47653 119.785323,113.485972 119.693086,113.497302 C119.477242,113.523738 119.251566,113.544982 118.99171,113.565753 C118.565173,113.598327 118.104924,113.533652 117.498595,113.353317 C117.146034,113.248516 116.763508,113.113029 116.40767,112.922781 C116.225537,112.825532 116.048086,112.717898 115.889363,112.584299 C115.28912,112.078702 114.857433,111.475384 114.569485,110.740355 C114.517045,110.607229 114.473502,110.472214 114.428554,110.337199 L114.405144,110.267331 C114.286687,109.909495 114.005762,109.630496 113.648987,109.516724 C113.53334,109.47943 113.413947,109.461491 113.29549,109.461491 C113.049213,109.461491 112.805745,109.539856 112.602542,109.69045 C112.479872,109.780617 112.36282,109.841515 112.243895,109.875505 C111.829999,109.994469 111.366473,110.018545 110.739074,109.957175 C110.493733,109.932627 110.26197,109.902886 110.038166,109.868424 C109.311039,109.757957 108.685981,109.596978 108.109149,109.366131 C108.051559,109.318451 107.989756,109.274547 107.92327,109.235837 C107.776721,109.149918 107.618935,109.099878 107.460212,109.082883 C107.114675,108.920016 106.821576,108.75762 106.558912,108.584839 C106.489617,108.534326 106.413767,108.490895 106.332299,108.455489 C106.216652,108.387982 106.101472,108.312449 105.984889,108.234083 C105.84349,108.139668 105.700218,108.039587 105.552732,107.935257 L105.40431,107.830455 C105.348125,107.791273 105.271808,107.7384 105.255888,107.723293 C105.181912,107.635958 105.095761,107.56137 105.001651,107.499999 C104.92627,107.43438 104.842461,107.377731 104.751628,107.333355 C104.442611,107.104868 104.14249,106.843808 103.819426,106.552063 C103.79742,106.517601 103.773542,106.484556 103.74779,106.452926 C104.287166,105.714593 104.95764,104.907337 105.76764,104.243592 C106.105686,103.966954 106.210565,103.639802 106.239594,103.41226 C106.238189,103.291407 106.236316,103.170555 106.233975,103.051119 C106.195582,102.819328 106.082744,102.545521 105.802287,102.294375 L105.72831,102.229228 C105.696004,102.200903 105.662293,102.174466 105.636542,102.146614 C104.763802,101.093404 104.132189,100.179457 103.64853,99.2721196 C103.135374,98.3086046 102.824952,97.3701098 102.69994,96.4032903 C102.57727,95.4544098 102.604894,94.4705954 102.78375,93.3961416 C102.839466,93.0642695 102.918594,92.8414478 103.039391,92.6785802 C103.057183,92.6644178 103.075443,92.6507275 103.093235,92.6375093 C103.109622,92.6252352 103.126946,92.6115449 103.144738,92.5978546 C103.15738,92.5973825 103.170021,92.5964383 103.182195,92.5959663 C103.234166,92.5950221 103.286137,92.5936059 103.338108,92.5879409 C103.476229,92.5733064 103.671004,92.6148495 103.842836,92.6587529 C105.179102,93.0010108 106.22227,93.4074715 107.125444,93.9371451 C108.127877,94.5248845 109.089108,95.2934305 110.063918,96.2852703 C110.308322,96.5345285 110.541022,96.8069186 110.787299,97.0948873 C110.934317,97.2676685 111.081802,97.4404497 111.232097,97.6085102 C111.255507,97.6354187 111.279854,97.6604389 111.345403,97.7274743 C111.42219,97.8063116 111.509276,97.8705145 111.601513,97.9238595 C111.860432,98.0720926 112.168982,98.1197726 112.465825,98.0447119 C112.868484,97.9422706 113.187802,97.6325862 113.303918,97.2303742 C113.314687,97.193552 113.328265,97.1590901 113.339034,97.1217958 C113.464982,96.703061 113.612467,96.301321 113.78149,95.9123272 C113.834866,95.7895865 113.892456,95.6677899 113.950513,95.5474095 C113.977201,95.4921762 114.004826,95.437887 114.03245,95.3831257 C114.196791,95.0569185 114.372369,94.7363763 114.57323,94.4257478 L114.573698,94.4248036 C114.615369,94.3657936 114.651889,94.3034791 114.681855,94.2392762 C114.812485,93.995683 114.992745,93.7468969 115.181901,93.4853647 L115.344369,93.2597105 C116.30841,91.9043693 117.41619,90.7425808 118.637745,89.8073906 C119.167288,89.4014019 119.745994,89.0072152 120.38978,88.86984 C120.656658,88.8127183 120.747959,88.8840024 120.80789,88.9297941 C120.871566,88.9793625 120.930092,89.0360121 120.985341,89.0964383 C121.054167,89.1710269 121.11878,89.2522247 121.177306,89.3456965 C121.369271,89.6530205 121.498965,90.0264356 121.58652,90.495683 C121.598225,90.5589417 121.612271,90.6184238 121.622572,90.6854591 C121.675948,91.0357423 121.691867,91.3071883 121.67267,91.5408678 C121.667988,91.601294 121.66752,91.6617202 121.671734,91.7221465 C121.678757,91.8193949 121.671265,91.9246687 121.668924,92.0261659 C121.663306,92.2829773 121.6413,92.5497024 121.604312,92.8442803 C121.421711,94.29687 121.045739,95.7541805 120.454861,97.3007141 C120.320485,97.6514694 120.168317,98.0041131 120.005849,98.3562846 C119.774554,98.8576334 119.518913,99.3580381 119.233774,99.8537219 L119.140601,100.003843 C118.952849,100.310695 118.91352,100.686943 119.034317,101.025424 C119.077392,101.145332 119.14341,101.251078 119.219728,101.348799 C119.358786,101.528189 119.542791,101.670285 119.762381,101.744402 C119.870069,101.780752 119.972138,101.800579 120.067184,101.810021 C120.38182,101.842122 120.617329,101.756204 120.693179,101.726935 Z M120.168786,120.654977 C120.168786,119.032438 120.092468,117.428783 119.952005,115.843067 C120.085445,115.827488 120.217479,115.812853 120.354196,115.790194 C120.978786,115.684448 121.686716,115.565012 122.383878,115.238804 L122.534641,115.167992 C122.904057,114.997099 123.322167,114.803075 123.719208,114.50472 C124.236578,114.116198 124.940295,113.472754 125.072798,112.381305 C125.154266,111.713312 125.00163,111.042487 124.605994,110.330118 C124.321323,109.817439 123.982809,109.373684 123.637271,108.990355 C123.896659,108.951173 124.153237,108.908214 124.407942,108.859589 C125.460474,108.659427 126.323381,108.465403 127.124017,108.24919 C127.794023,108.067439 128.458411,107.842729 129.099856,107.579309 C129.986642,107.214863 130.637451,106.857499 131.209133,106.420825 C131.680619,106.060628 133.115677,104.965403 132.992538,102.990693 C132.987388,102.904302 132.972405,102.818383 132.948526,102.735297 L132.829133,102.320811 C132.794954,102.199959 132.74111,102.085715 132.670411,101.98233 C132.454099,101.663204 132.176451,101.294982 131.76396,100.982465 C130.879047,100.312111 129.901428,99.9703257 129.061463,99.7243721 C127.820243,99.3608706 126.568254,99.2187745 125.508231,99.1281352 C125.316734,99.1120845 125.126173,99.0927292 124.935613,99.073846 C124.344266,99.014836 123.731849,98.9548819 123.093682,98.9619631 C122.826335,98.9657397 122.557115,98.9799021 122.288364,99.0049224 C122.413375,98.7197861 122.530427,98.4341778 122.63952,98.1495137 C123.299225,96.4226456 123.720144,94.7850005 123.926624,93.1412185 C123.988428,92.6502554 124.040867,92.1654294 124.012306,91.6414208 C124.037121,91.2472341 124.012306,90.826611 123.936456,90.3276226 C123.847029,89.7379948 123.698138,89.2210674 123.497277,88.7537083 L125.177208,82.3598588 C125.235266,82.1384533 125.283023,81.9076063 125.318607,81.6772313 C125.328439,81.6135005 125.334994,81.551186 125.343422,81.4577142 C125.361682,81.3038162 125.378537,81.148974 125.385092,80.9993247 C125.38837,80.930401 125.387902,80.8628936 125.386497,80.7953862 L125.386029,80.7477061 C125.386029,80.6098588 125.384624,80.4720115 125.37526,80.3346362 C125.37011,80.2642963 125.361682,80.1958447 125.352786,80.1278652 L125.346699,80.0801852 C125.33078,79.9498911 125.313457,79.8200692 125.288173,79.6907193 C125.274127,79.6184911 125.256335,79.5476791 125.230584,79.4457099 C125.199214,79.3196645 125.165971,79.1950355 125.126173,79.0755993 C125.102763,79.0047873 125.076543,78.9363357 125.039555,78.8400314 C124.992734,78.719651 124.942636,78.6016311 124.886919,78.4869157 C124.851803,78.4146875 124.814347,78.3438755 124.775485,78.2725914 C124.713214,78.1592923 124.647665,78.0497697 124.576497,77.9421355 C124.532485,77.8755723 124.487069,77.8104252 124.441653,77.7485828 C124.364867,77.6437811 124.283399,77.5432281 124.217381,77.4686394 C124.183202,77.4237918 124.147618,77.3803605 124.109225,77.3388175 L123.346046,76.5249518 L123.243977,76.6113424 C122.321607,75.999999 121.177774,75.6973958 119.92204,75.7464921 L110.725028,76.1090495 L104.473045,57.1163328 C104.385958,56.8519681 104.282484,56.5852429 104.165432,56.3246549 C104.136403,56.2590358 104.104097,56.1967212 104.071322,56.1353508 L104.046039,56.0862545 C103.963634,55.9186662 103.879825,55.7510778 103.78712,55.5929311 C103.746854,55.5244795 103.704247,55.4602767 103.660703,55.3965459 L103.619033,55.3332872 C103.529605,55.1959119 103.439709,55.0594809 103.342322,54.9306031 C103.292224,54.864984 103.240253,54.8031415 103.187813,54.741299 L103.147547,54.6940911 C103.045946,54.5722944 102.94294,54.4519141 102.834316,54.3400312 C102.773917,54.2781887 102.712114,54.2201229 102.649374,54.1620571 L102.616599,54.1313719 C102.502825,54.0251539 102.387646,53.9222405 102.266848,53.8264083 C102.194276,53.7688145 102.120299,53.7149974 102.028998,53.6498504 C101.904455,53.5606273 101.778039,53.4756529 101.647877,53.3968156 C101.564536,53.3472472 101.480258,53.3005113 101.395044,53.2551917 C101.259732,53.1829634 101.122547,53.1168723 100.981616,53.055974 C100.895466,53.0191517 100.808379,52.9832737 100.719888,52.9507002 C100.575212,52.896883 100.428663,52.8506192 100.297564,52.8133249 C100.240443,52.7934976 100.183322,52.7750864 100.124796,52.760924 L99.0633678,52.5055288 L99.030125,52.6098585 C97.6222232,52.547544 96.1745236,53.0045173 94.8588588,53.9472607 L84.4857077,61.3900717 L72.3179149,44.7884395 C72.1531056,44.5637295 71.9723773,44.342324 71.782753,44.1331926 C71.7335911,44.0789035 71.6830246,44.0293351 71.6319899,43.9797667 L71.5945333,43.9424724 C71.4639032,43.8084017 71.332805,43.6757473 71.197961,43.5572552 C71.1380304,43.5039102 71.0766951,43.4548139 71.0144234,43.4071338 L70.9577702,43.3618142 C70.8299494,43.2589008 70.7016604,43.1564594 70.5691575,43.0644039 C70.5017355,43.01814 70.4338453,42.9756528 70.365487,42.9341098 L70.3111748,42.9005921 C70.1767991,42.817034 70.0424234,42.7353642 69.9061748,42.663136 C69.8284522,42.6225371 69.7502615,42.586187 69.6313366,42.5318978 C69.4908742,42.4667508 69.3504117,42.4053804 69.2071401,42.3520354 C69.1158395,42.3185177 69.0245389,42.2892487 68.928088,42.2595077 C68.7820071,42.2127718 68.6349897,42.1717009 68.4832903,42.137239 C68.3901169,42.1164675 68.2969434,42.0985285 68.2033018,42.0824778 C68.0516024,42.0555692 67.899903,42.0357419 67.7496081,42.0225236 C67.6550301,42.0140262 67.5599839,42.0074171 67.4663422,42.0041125 C67.3118335,41.9975034 67.1577931,41.9993917 67.0229491,42.0060008 C66.9634867,42.0060008 66.9026196,42.0055287 66.8422208,42.0102495 L65.7587872,42.0994726 L65.7587872,42.2085231 C64.3991108,42.5880753 63.1625731,43.4784179 62.2022782,44.7879674 L50.0312079,61.3947925 L49.2160576,60.8098856 L49.2165258,60.8098856 L39.6632071,53.9552861 C38.3480105,53.0125426 36.9007792,52.5546252 35.4919409,52.6183559 L35.4563571,52.506473 L34.3972703,52.7689494 C34.3387443,52.7835839 34.2816229,52.801995 34.2418252,52.8171016 C34.0934032,52.8586446 33.9468541,52.9053805 33.804987,52.9582534 C33.7160275,52.9908269 33.6289408,53.0262329 33.539513,53.0644714 C33.3995188,53.1253697 33.2618656,53.1914609 33.1279581,53.263217 C33.0418078,53.3085367 32.9570621,53.3557447 32.8727846,53.4062572 C32.7435592,53.4841504 32.6176112,53.5691248 32.4808944,53.6668453 C32.4055129,53.7206624 32.3305996,53.7749516 32.2519407,53.8372661 C32.133484,53.9321542 32.0197094,54.0336513 31.9073395,54.1384531 L31.8726921,54.1705545 C31.8099522,54.2286203 31.7481487,54.2866861 31.6872817,54.3490007 C31.5791256,54.4604115 31.4761198,54.5807919 31.3749868,54.7016443 L31.3351892,54.7488523 C31.2818134,54.8111669 31.2289059,54.8744256 31.1797441,54.9395726 C31.0814203,55.0684504 30.990588,55.2072419 30.8992874,55.3474496 L30.8632354,55.4022108 C30.8187556,55.4673579 30.7756804,55.532977 30.7340099,55.6033168 C30.6422411,55.7595753 30.5584319,55.9266915 30.475559,56.0956961 L30.450744,56.1438483 C30.4179694,56.2052187 30.3856631,56.2670611 30.3566342,56.3326802 C30.2391139,56.5946845 30.1356399,56.8614097 30.0490214,57.1248302 L23.7979747,76.1142423 L14.4651821,75.7464921 C13.1968062,75.6959796 12.0478235,76.0047198 11.122176,76.6255048 L11.01402,76.53817 L10.2737829,77.3430662 C10.2372627,77.383193 10.2030835,77.4252081 10.1899736,77.4450354 C10.1047598,77.542756 10.0237598,77.6423648 9.94510079,77.7495269 C9.89781177,77.8137298 9.85286379,77.8788768 9.81025685,77.9430797 C9.73955743,78.0497697 9.67400829,78.1592923 9.6112684,78.2735356 C9.57287533,78.3438755 9.53541868,78.4146875 9.50030307,78.4873878 C9.4445863,78.6016311 9.39448803,78.719651 9.34485797,78.8485288 C9.31536086,78.9235895 9.28680017,78.9986502 9.26198513,79.0737109 C9.22171924,79.1950355 9.18800825,79.3196645 9.14867877,79.4773392 C9.13088686,79.5476791 9.11356316,79.6184911 9.0985805,79.6940239 C9.07376547,79.8200692 9.05644177,79.9498911 9.0409909,80.0801852 L9.03443598,80.1278652 C9.02554003,80.1958447 9.01758049,80.2642963 9.0124302,80.3355804 C9.00259783,80.4677627 9.00166141,80.6027776 9.00166141,80.7477061 L9.000725,80.7953862 C8.99978858,80.8628936 8.99932037,80.930401 9.00212962,80.9993247 C9.00868454,81.1485019 9.02554003,81.3023999 9.04754581,81.4935923 C9.0526961,81.5530743 9.05878281,81.6120843 9.06861518,81.6758151 C9.10513541,81.9127992 9.15148802,82.136565 9.21048224,82.3593867 L14.8622226,103.87301 L15.9011764,107.809684 C14.8926561,111.924332 14.3537485,116.225923 14.3537485,120.654977 C14.3537485,150.116536 38.0413342,174 67.2612671,174 C96.4812,174 120.168786,150.116536 120.168786,120.654977 Z" id="Fill-5" fill="#F1F1F1"></path>
                <path d="M23,120.060552 C23,137.625784 33.2022648,152.807261 48,160 L26.8408637,102 C24.3796774,107.518738 23,113.62658 23,120.060552" id="Fill-7" fill="#F1F1F1"></path>
                <path d="M60.3420179,21.7369884 C60.3420179,21.7369884 60.9186176,21.3762085 61.6065797,21.1030861 L58.0623094,27.8933151 C58.0623094,27.8933151 56.1084051,32.091188 61.3189701,32.4639632 C62.5591426,32.5530048 63.6368731,32.6794162 64.5655069,32.8196682 C64.6704269,32.9207051 64.7813291,33.0203578 64.9009747,33.1172425 C65.6943169,33.7608333 66.1052535,34.3093849 66.3095713,34.8537843 C66.6082251,35.6500837 66.4614292,36.437156 66.3896418,37.5010416 C66.3247571,38.4578928 67.3201163,42.4449263 70.2044951,37.7810844 C71.175465,36.2101692 71.6287377,35.3820362 71.8040645,34.9718912 C73.5858633,34.9511302 75.6262806,35.2565475 75.9727927,32.6508121 C76.238774,30.6517591 74.5103555,24.5134253 72.7211939,20.5222396 C72.0060815,18.9264112 71.2808452,17.6724472 70.6692722,17.1663403 C68.529457,15.3938128 64.7146037,13.7149405 60.4349733,16.4203286 C56.1553429,19.1252554 57.0853572,22.0170312 57.0853572,22.0170312 C57.0853572,22.0170312 57.5510547,24.1623338 60.3420179,21.7369884" id="Fill-9" fill="#F1F1F1"></path>
                <g id="Group-13" transform="translate(66.000000, 128.000000)">
                    <mask id="mask-2" fill="white">
                        <use xlink:href="#path-1"></use>
                    </mask>
                    <g id="Clip-12"></g>
                    <path d="M59.4284561,0.237116379 C58.1316227,0.237116379 57.0799712,1.29823707 57.0799712,2.60780603 C57.0799712,28.8826336 32.5326682,50.2586681 2.36027424,50.2586681 C1.06344091,50.2586681 0.0117893939,51.3197888 0.0117893939,52.6293578 C0.0117893939,53.9389267 1.06344091,55.0000474 2.36027424,55.0000474 C35.1225773,55.0000474 61.7769409,31.4970302 61.7769409,2.60780603 C61.7769409,1.29823707 60.7252894,0.237116379 59.4284561,0.237116379" id="Fill-11" fill="#F1F1F1" mask="url(#mask-2)"></path>
                </g>
                <path d="M86.1792102,34.6312066 C93.2174518,35.0145429 100.855614,38.3616662 106.112524,43.365896 C106.558087,43.7900226 107.127137,44 107.695725,44 C108.306704,44 108.916301,43.7571122 109.369698,43.2755084 C110.244237,42.3456747 110.203689,40.8790775 109.279387,39.9993046 C103.173281,34.1866849 94.6310901,30.4497359 86.4284861,30.0028966 C85.155843,29.939857 84.0721151,30.9132622 84.0034605,32.1916677 C83.9343452,33.4696097 84.908871,34.5621412 86.1792102,34.6312066" id="Fill-14" fill="#F1F1F1"></path>
                <path d="M4.45604861,73.8299906 C4.74038072,73.9456719 5.03400472,74 5.32298278,74 C6.24288076,74 7.11399628,73.4454791 7.47823872,72.5322056 C11.9299875,61.3855854 21.3849592,52.6486023 33.4179682,48.5613521 C34.6338132,48.1487399 35.2874983,46.8205123 34.8777255,45.5943841 C34.4684174,44.3687243 33.1512907,43.7102307 31.9345166,44.1233113 C18.6127211,48.647996 8.12774245,58.3647577 3.16865602,70.7834039 C2.68965863,71.9828364 3.26575636,73.3471265 4.45604861,73.8299906" id="Fill-16" fill="#F1F1F1"></path>
                <g id="Group-20" transform="translate(0.000000, 93.000000)">
                    <mask id="mask-4" fill="white">
                        <use xlink:href="#path-3"></use>
                    </mask>
                    <g id="Clip-19"></g>
                    <path d="M7.381575,0.669995082 C6.289875,0.0438803279 4.923675,0.469372131 4.330125,1.62224098 C0.406575,9.24163443 -0.958275,18.7446016 0.678375,27.0419295 C0.899775,28.1634213 1.835775,28.9340607 2.879325,28.9340607 C3.031425,28.9340607 3.185775,28.9178967 3.340575,28.8836672 C4.556925,28.6155361 5.337675,27.3571262 5.084325,26.071618 C3.679425,18.9518803 4.905225,10.4539295 8.282925,3.89422459 C8.876925,2.74088033 8.473275,1.29753607 7.381575,0.669995082" id="Fill-18" fill="#F1F1F1" mask="url(#mask-4)"></path>
                </g>
                <g id="Group-23" transform="translate(116.000000, 145.000000)">
                    <mask id="mask-6" fill="white">
                        <use xlink:href="#path-5"></use>
                    </mask>
                    <g id="Clip-22"></g>
                    <path d="M15.0776676,0.136157407 C13.832073,-0.105509259 12.6273703,0.71625 12.3875324,1.97134259 C11.0573973,8.92550926 6.73618108,16.0755093 1.1101,20.6296759 C0.120883784,21.4301389 -0.0367108108,22.8875463 0.757694595,23.8843056 C1.21164054,24.453287 1.87785676,24.7491204 2.55004595,24.7491204 C3.05499189,24.7491204 3.56315405,24.5824537 3.98723514,24.2393981 C10.5225865,18.9491204 15.3492081,10.9518981 16.8989649,2.84726852 C17.1388027,1.59217593 16.3232622,0.377824074 15.0776676,0.136157407" id="Fill-21" fill="#F1F1F1" mask="url(#mask-6)"></path>
                </g>
                <path d="M21.4065016,45 C21.9896292,45 22.5746812,44.7893387 23.0375267,44.3622445 C24.2095554,43.2810421 30.0466047,40.4188378 32.3208984,39.6983569 C33.5872283,39.2972346 34.2882323,37.9452507 33.8869713,36.679359 C33.4857102,35.4129863 32.1332584,34.7112628 30.8669285,35.113347 C28.6417099,35.8184372 21.872715,38.8922647 19.7740331,40.8281364 C18.7978236,41.7284971 18.7367203,43.2497796 19.6378737,44.2261323 C20.1122663,44.7397996 20.7584217,45 21.4065016,45" id="Fill-24" fill="#F1F1F1"></path>
                <path d="M27.7610839,164.458917 C26.3598187,163.672643 21.7957671,158.969066 20.3954717,157.013325 C19.6158058,155.924377 18.1015667,155.673603 17.0130406,156.454057 C15.9245146,157.23354 15.6738384,158.749336 16.4535043,159.837799 C17.823738,161.751341 22.8808991,167.281936 25.3891153,168.69005 C25.7644022,168.900079 26.1712055,169 26.5731601,169 C27.4211922,169 28.244981,168.55375 28.6896039,167.76117 C29.344659,166.592188 28.9291281,165.114711 27.7610839,164.458917" id="Fill-26" fill="#F1F1F1"></path>
                <path d="M62,11 C62.5524,11 63,10.4734118 63,9.82352941 L63,4.17647059 C63,3.52658824 62.5524,3 62,3 C61.4476,3 61,3.52658824 61,4.17647059 L61,9.82352941 C61,10.4734118 61.4476,11 62,11" id="Fill-28" fill="#F1F1F1"></path>
                <path d="M54.9182215,13.6429225 C55.1562645,13.8809742 55.468452,14 55.7806395,14 C56.0923392,14 56.4045267,13.8809742 56.6425697,13.6429225 C57.1191434,13.1668191 57.1191434,12.3946146 56.6425697,11.9185112 L49.0817785,4.35744338 C48.6061803,3.88085221 47.8335163,3.88085221 47.3574303,4.35744338 C46.8808566,4.83354675 46.8808566,5.60575129 47.3574303,6.08185466 L54.9182215,13.6429225 Z" id="Fill-30" fill="#F1F1F1"></path>
                <g id="Group-34" transform="translate(68.000000, 0.000000)">
                    <mask id="mask-8" fill="white">
                        <use xlink:href="#path-7"></use>
                    </mask>
                    <g id="Clip-33"></g>
                    <path d="M0.727105882,11.475504 C0.912517647,11.584944 1.11487059,11.636304 1.3144,11.636304 C1.72098824,11.636304 2.11628235,11.421264 2.33416471,11.036304 L7.49181176,1.923984 C7.81651765,1.349904 7.62404706,0.615984 7.06122353,0.284784 C6.4984,-0.047856 5.7784,0.149904 5.45416471,0.723984 L0.296517647,9.836304 C-0.0281882353,10.410384 0.164282353,11.144304 0.727105882,11.475504" id="Fill-32" fill="#F1F1F1" mask="url(#mask-8)"></path>
                </g>
                <path d="M47.199976,21 L52.800024,21 C53.4628907,21 54,20.5524 54,20 C54,19.4476 53.4628907,19 52.800024,19 L47.199976,19 C46.5371093,19 46,19.4476 46,20 C46,20.5524 46.5371093,21 47.199976,21" id="Fill-35" fill="#F1F1F1"></path>
            </g>
        </g>
    </g>
</svg>