<?xml version="1.0" encoding="UTF-8" standalone="no"?>
<!-- Generator: Adobe Illustrator 16.0.4, SVG Export Plug-In . SVG Version: 6.00 Build 0)  -->

<svg
   xmlns:a="http://ns.adobe.com/AdobeSVGViewerExtensions/3.0/"
   xmlns:dc="http://purl.org/dc/elements/1.1/"
   xmlns:cc="http://creativecommons.org/ns#"
   xmlns:rdf="http://www.w3.org/1999/02/22-rdf-syntax-ns#"
   xmlns:svg="http://www.w3.org/2000/svg"
   xmlns="http://www.w3.org/2000/svg"
   xmlns:xlink="http://www.w3.org/1999/xlink"
   xmlns:sodipodi="http://sodipodi.sourceforge.net/DTD/sodipodi-0.dtd"
   xmlns:inkscape="http://www.inkscape.org/namespaces/inkscape"
   version="1.1"
   x="0px"
   y="0px"
   width="1512px"
   height="576px"
   viewBox="0 0 1512 576"
   enable-background="new 0 0 1512 576"
   xml:space="preserve"
   id="svg2"
   inkscape:version="0.48.5 r10040"
   sodipodi:docname="cwp-ni.color.svg"><metadata
     id="metadata124"><rdf:RDF><cc:Work
         rdf:about=""><dc:format>image/svg+xml</dc:format><dc:type
           rdf:resource="http://purl.org/dc/dcmitype/StillImage" /></cc:Work></rdf:RDF></metadata><defs
     id="defs122"><linearGradient
       inkscape:collect="always"
       xlink:href="#SVGID_1_"
       id="linearGradient3378"
       gradientUnits="userSpaceOnUse"
       x1="180.8506"
       y1="355.80859"
       x2="428.22559"
       y2="355.80859" /><linearGradient
       inkscape:collect="always"
       xlink:href="#SVGID_2_"
       id="linearGradient3380"
       gradientUnits="userSpaceOnUse"
       x1="185.4678"
       y1="361.0654"
       x2="402.42331"
       y2="345.3299" /><linearGradient
       inkscape:collect="always"
       xlink:href="#SVGID_3_"
       id="linearGradient3382"
       gradientUnits="userSpaceOnUse"
       x1="437.58789"
       y1="420.90039"
       x2="472.81039"
       y2="357.44431" /><linearGradient
       inkscape:collect="always"
       xlink:href="#SVGID_4_"
       id="linearGradient3384"
       gradientUnits="userSpaceOnUse"
       x1="378.76559"
       y1="225.877"
       x2="425.92221"
       y2="427.25049" /><linearGradient
       inkscape:collect="always"
       xlink:href="#SVGID_1_"
       id="linearGradient3484"
       gradientUnits="userSpaceOnUse"
       x1="180.8506"
       y1="355.80859"
       x2="428.22559"
       y2="355.80859" /><linearGradient
       inkscape:collect="always"
       xlink:href="#SVGID_2_"
       id="linearGradient3486"
       gradientUnits="userSpaceOnUse"
       x1="185.4678"
       y1="361.0654"
       x2="402.42331"
       y2="345.3299" /><linearGradient
       inkscape:collect="always"
       xlink:href="#SVGID_3_"
       id="linearGradient3488"
       gradientUnits="userSpaceOnUse"
       x1="437.58789"
       y1="420.90039"
       x2="472.81039"
       y2="357.44431" /><linearGradient
       inkscape:collect="always"
       xlink:href="#SVGID_4_"
       id="linearGradient3490"
       gradientUnits="userSpaceOnUse"
       x1="378.76559"
       y1="225.877"
       x2="425.92221"
       y2="427.25049" /></defs><sodipodi:namedview
     pagecolor="#ffffff"
     bordercolor="#666666"
     borderopacity="1"
     objecttolerance="10"
     gridtolerance="10"
     guidetolerance="10"
     inkscape:pageopacity="0"
     inkscape:pageshadow="2"
     inkscape:window-width="1366"
     inkscape:window-height="702"
     id="namedview120"
     showgrid="false"
     inkscape:zoom="0.20568783"
     inkscape:cx="165.29904"
     inkscape:cy="288"
     inkscape:window-x="0"
     inkscape:window-y="125"
     inkscape:window-maximized="1"
     inkscape:current-layer="svg2" /><rect
     style="fill:#ffff00;fill-opacity:1;stroke:none"
     id="rect3492"
     width="696.82318"
     height="696.82318"
     x="-1896.0771"
     y="-18.726685"
     inkscape:export-filename="/home/leogg/Downloads/wpnica-128.png"
     inkscape:export-xdpi="90"
     inkscape:export-ydpi="90" /><g
     id="Layer_16"><g
       id="g5"><g
         id="g7"><g
           id="g9"><path
             d="M263.5,1045.619c-77.748,0-141-63.252-141-141s63.252-141,141-141c77.748,0,141,63.252,141,141      S341.248,1045.619,263.5,1045.619z"
             id="path11" /><g
             id="g13"><path
               d="M263.5,768.619c75.11,0,136,60.889,136,136c0,75.11-60.89,136-136,136c-75.111,0-136-60.89-136-136       C127.5,829.508,188.389,768.619,263.5,768.619 M263.5,758.619c-38.998,0-75.662,15.187-103.238,42.762       c-27.576,27.576-42.762,64.24-42.762,103.238s15.187,75.662,42.762,103.237c27.576,27.576,64.24,42.763,103.238,42.763       s75.661-15.187,103.237-42.763S409.5,943.617,409.5,904.619s-15.187-75.662-42.763-103.238       C339.162,773.806,302.498,758.619,263.5,758.619L263.5,758.619z"
               id="path15" /></g></g><g
           id="g17"><path
             fill="#FFFFFF"
             d="M347.425,848.613c-8.354-29.917-26.303-54.575-48.012-65.961c-16.264-8.529-32.427-12.854-48.038-12.854      c-10.938,0-20.352,1-3,1c12.313,0,27.992,2.857,46.181,12.396c43.818,22.98,68.072,100.311,36.431,152.716      c-21.035,34.842-58.029,54.12-95.961,54.12c-19.698,0-39.656-5.204-57.749-16.128c-23.827-14.386-42.052-39.667-50.392-64.706      c-0.69-2.07-0.729,1.832-0.729,1.832c7.803,29.133,26.289,53.742,52.053,69.299c18.099,10.927,38.783,16.703,59.816,16.703      c19.625,0,39.075-5.012,56.25-14.492c17.705-9.775,32.621-24.146,43.135-41.561C352.97,915.209,356.619,881.543,347.425,848.613      z"
             id="path19" /></g><path
           fill="#FFFFFF"
           d="M280.627,792.195c-64.69-32.137-160.783,36.578-135.623,118.08c25.524,82.6,132.168,60.165,165.459-0.302     C336.279,863.082,315.895,811.224,280.627,792.195 M198.279,800.684c36.176-17.555,86.22-19.378,108.166,33.219     c-0.253-0.179-25.914-14.103-23.986,23.703c1.052,20.424-5.334,32.445-27.391,51.42c-9.839,9.989-12.816,13.004-22.578,23.502     c5.309-35.857,10.252-66.118,21.347-101.93c7.374,3.089,15.751,6.604,14.44-0.133c-0.18-0.854-38.056-18.885-38.43-19.033     c-3.038-1.191-5.456,1.75-5.498,1.775c-1.818,2.373-1.325,2.623,6.68,6.837c-4.583,12.235-6.688,17.81-11.334,36.927     c-12.812,12.953-26.046,26.348-41.197,50.291c3.28-42.255,10.349-68.709,26.123-97.604c3.143-0.006,5.906,2.407,9.205,1.545     c2.262-0.591,4.875-3.388,3.369-4.812C211.837,801.328,204.5,802.868,198.279,800.684 M222.855,953.471     c23.729-24.426,51.08-44.965,74.699-69.51c4.569-4.756,10.814-12.667,14.632-23.383     C313.27,902.173,282.941,947.42,222.855,953.471 M161.542,927.931c-30.146-43.962-10.746-93.31,23.991-119.349     C165.477,842.994,158.977,875.326,161.542,927.931 M183.476,946.626c-5.504-2.858-9.641-5.769-14.261-10.051     c7.974-16.827,18.92-37.261,47.776-66.981c-8.184,46.37-8.838,83.596-8.816,83.814     C204.674,953.069,194.016,952.012,183.476,946.626"
           id="path21" /><path
           fill-rule="evenodd"
           clip-rule="evenodd"
           d="M512.416,930.028c1.765-35.856-3.391-64.048-11.58-85.981l-4.51-14.181     c-0.518-1.628-13.213-40.106-60.186-62.338c-14.332-6.783-27.417-10.223-38.89-10.223c-10.199,0-18.843,2.91-23.154,7.785     c-32.558-12.489-78.746-15.724-80.8-15.862l-33.758-2.272l30.918,13.742c15.239,6.772,29.383,14.197,41.937,21.448     c-6.104-2.173-10.104-3.363-10.643-3.521l-29.831-8.762l24.429,19.233c2.765,2.176,21.206,16.646,35.101,26.378     c-1.229,12.222-0.384,24.784,0.448,37.149c1.327,19.724,2.616,38.974-3.933,56.766c-14.555,3.143-30.803,9.657-48.128,19.308     c-72.741,40.52-103.631,34.799-103.631,34.799c-0.438,1.435-1.701,3.001-3.359,4.554c-31.141-10.656-51.061-30.59-51.326-30.86     l-0.544-0.492c-4.862-3.891-13.549-5.846-20.212-6.812c-1.445-5.617-3.352-15.607-2.827-27.894     c4.872-14.332,20.115-31.971,30.02-40.314l0.446-0.376l0.273-0.515c0.296-0.561,30.124-56.282,72.896-83.541l11.703-7.458     l-13.738,1.958c-0.284,0.04-28.817,4.206-66.678,18.155l-0.589,0.217l-0.453,0.436c-1.08,1.038-26.672,25.965-46.681,72.987     l-0.233,0.548l-0.006,0.596c-0.01,0.913-0.157,21.114,4.865,38.396c-0.307,10.745,1.105,19.778,2.513,25.933     c-0.013-0.001-0.03-0.002-0.042-0.002l-9.199-0.517l23.437,62.219c-1.593-0.139-3.213-0.209-4.856-0.209     c-2.647,0-5.078,0.185-7.176,0.442c-4.902-10.146-17.469-39.734-18.192-77.703c-0.524-27.554,5.239-54.013,17.132-78.641     c9.245-19.146,22.254-37.229,38.835-54.074c17.998-11.287,43.19-15.214,43.464-15.256l0.759-0.114l0.61-0.465     c35.764-27.236,87.457-41.608,87.976-41.75l1.326-0.364l12.662-26.634l-5.544,0.802c-82.874,11.981-133.975,53.571-134.482,53.99     l-0.46,0.381l-13.294,25.108c-16.587,17.1-29.668,35.455-39.057,54.897c-12.444,25.77-18.475,53.449-17.926,82.271     c0.718,37.706,12.37,67.004,18.082,79.18l-5.545,1.711l1.914,5.808c0.461,1.4,11.64,34.688,41.008,68.363     c17.29,19.825,37.318,35.631,59.528,46.978c27.757,14.18,58.951,21.368,92.726,21.368c0.004,0,0.014,0,0.019,0     c2.178,0,4.392-0.03,6.58-0.089c34.769-0.938,66.371-8.06,93.93-21.168c16.228-7.719,31.097-17.535,44.446-29.293     C531.812,1034.092,535.827,930.13,512.416,930.028z"
           id="path23" /><path
           fill="#FFFFFF"
           d="M320.061,784.382c0,0,45.389,13.331,73.334,37c0,0-16.5,1.667-26.5-3.167     C356.895,813.382,320.061,784.382,320.061,784.382z"
           id="path25" /><path
           fill="#FFFFFF"
           d="M393.395,816.215c0,0-42-35-100.5-61c0,0,50,3.5,82,17.5     C374.895,772.715,389.895,793.715,393.395,816.215z"
           id="path27" /><path
           fill="#FFFFFF"
           d="M381.447,772.518c-0.026,1.049,0.545,8.59,21.472,12.97l1.504,0.314     c23.221,4.854,43.792,9.155,72.534,28.562c-0.451-0.657-0.921-1.325-1.409-2.001c-7.576-10.483-21.305-25.204-43.685-35.796     c-12.802-6.06-24.771-9.262-34.612-9.262c-9.305,0-14.312,2.882-15.61,4.323l0.042,0.308L381.447,772.518z"
           id="path29" /><path
           fill="#FFFFFF"
           d="M110.894,865.329c5.746-13.419,12.005-25.025,17.981-34.738l12.02-14.376h11.333l9.667-2.833     l2.349,12.104c-11.727,15.924-19.033,29.086-20.595,31.978c-7.221,6.175-16.569,16.384-23.512,27.099     c1.927-11.337,4.459-25.283,12.675-36.68l-0.417-1.507c-9.401,13.041-16.89,26.159-20.198,38.23     C111.025,875.355,110.904,867.486,110.894,865.329z"
           id="path31" /><path
           fill="#FFFFFF"
           d="M163.255,755.002c3.044-2.399,21.338-16.324,51.667-29.619h11.026l1.28,5.667l-1.803,9.043     c-10.67,5.477-21.546,11.927-31.413,19.369c-3.105,0.518-14.718,2.646-27.321,7.401c6.995-6.212,15.352-13.252,22.54-18.49     l8.663-7.947c-8.598,6.266-28.876,15.894-39.292,23.363L163.255,755.002z"
           id="path33" /><path
           fill="#FFFFFF"
           d="M411.228,798.939c-6.412,0-11.609,5.198-11.609,11.61c0,6.411,5.197,11.609,11.609,11.609     s11.609-5.198,11.609-11.609C422.837,804.138,417.64,798.939,411.228,798.939z M411.228,819.326c-4.848,0-8.776-3.93-8.776-8.776     c0-4.848,3.929-8.777,8.776-8.777s8.776,3.93,8.776,8.777C420.004,815.396,416.075,819.326,411.228,819.326z"
           id="path35" /><path
           fill-rule="evenodd"
           clip-rule="evenodd"
           fill="#FFFFFF"
           d="M499.601,892.626c-1.997-3.629-4.371-7.423-5.539-8.411     c-2.167-1.833-4.166-5.5-4.166-5.5c-11.166-26.167-33.334-53-54.167-51.666c-20.833,1.333-25.166,27.999-25.333,31.333     c-0.167,3.333,1.833,8.5,2.243,10.833c0.41,2.334-0.41,5-0.41,5c0.924,6.705,0,20.667,0,20.667     c-9.834-35.167-32.333-53.834-32.333-53.834c2.834,13-2.667,24.334-2.667,24.334c-0.833-15.334-5.667-18.667-5.667-18.667     s-3.833,1.5-3.334,6.334c1.599,15.485-1.915,31.974-4.32,40.925c-0.591,4.514-1.472,9.009-2.729,13.463     c16.882-1.251,30.773,2.96,40.452,13.101c-7.251-3.514-16.752-6.275-29.145-6.969c-41.187-2.303-108.573,43.064-108.573,43.064     l-9.614,6.935l13.364-0.808c0,0-34.182,17.353-67.121,19.035c1.909,2.445,0.221,5.725-3.49,4.953     c-3.713-0.771-6.803-1.675-9.292-1.146c-2.488,0.529-8.201,3.103-8.328,3.538c-0.127,0.434,2.759,2.536,5.956,4.571     c3.197,2.035,2.682,3.299,2.93,4.944c0.248,1.645,3.354,6.483,20.793,12.686c17.438,6.201,53.102,17.421,63.332,18.844     c-18.051,0.378-54.01-9.828-54.01-9.828s-3.375,9.544,6.314,16.311c9.688,6.764,39.332,12.133,39.332,12.133     s30.508,11.499,82.884,2.87c20.354-3.353,41.63-17.137,57.096-35.472c-17.814,27.416-51.63,42.846-82.663,45.223     c-28.49,2.183-114.099,2.381-162.27-58.235c0,0-13.283-11.787-12.315-16.734c0.967-4.948,13.249-6.297,17.53-11.564     c0,0,13.262,4.338,14.021,2.838c0,0,0.93-0.48,2.361-1.287c-16.497-6.74-29.396-15.498-37.618-21.973h-10.292l-7.244-4.951     l-0.967,2.196l14.466,38.406c1.406,2.384,21.031,35.366,46.078,62.099c-3.215-0.201-27.042-20.914-42.72-41.368l-2.246-0.632     c0,0-6.034-2-11.602-1.49c-3.038,0.278-4.936,3.771-6.035,6.889c6.206,12.247,16.088,28.839,30.505,45.298     c16.277,18.581,35.083,33.373,55.895,43.963c25.984,13.223,55.265,19.927,87.017,19.928c2.062,0.029,4.186-0.028,6.274-0.085     c27.999-0.755,53.458-5.584,76.271-14.406c26.75-17.669,66.896-55.323,88.869-129.937c0,0,4.081,4.128,7.777,10.035     c0,0,9.102-23.803,4.951-52.67c0,0,8.688,34.135-3.869,64.638c0,0-4.934-7.342-7.578-8.995c0,0-17.375,65.945-76.559,111.05     c22.324-10.736,41.826-25.679,58.356-44.79c37.364-43.2,46.351-92.429,48.479-111.589     C501.253,927.158,501.242,908.781,499.601,892.626z"
           id="path37" /></g><g
         id="g39"><text
           transform="matrix(1 0 0 1 587.5762 991.7461)"
           fill="#03719D"
           font-family="'Ubuntu-Bold'"
           font-size="140"
           id="text41">NICARAGUA</text>
<text
           transform="matrix(1 0 0 1 587.5762 864.4609)"
           id="text43"><tspan
             x="0"
             y="0"
             font-family="'NexaLight'"
             font-size="64"
             id="tspan45">COMUNIDAD </tspan><tspan
             x="401.724"
             y="0"
             font-family="'NexaBold'"
             font-size="64"
             id="tspan47">WORDPRESS</tspan></text>
</g></g></g><g
     id="g52"><path
       d="m 264.818,417.842 c -77.748,0 -141,-63.252 -141,-141 0,-77.747 63.252,-141 141,-141 77.748,0 141,63.253 141,141 0,77.748 -63.252,141 -141,141 z"
       id="path54"
       inkscape:connector-curvature="0"
       style="fill:#e04a25" /><g
       id="g56"><path
         d="m 348.425,221.24 c -8.354,-29.917 -26.303,-54.575 -48.012,-65.961 -16.264,-8.529 -32.427,-12.854 -48.038,-12.854 -10.938,0 -20.352,1 -3,1 12.313,0 27.992,2.857 46.181,12.396 43.818,22.98 68.072,100.311 36.431,152.716 -21.035,34.842 -58.029,54.12 -95.961,54.12 -19.698,0 -39.656,-5.204 -57.749,-16.128 -23.827,-14.386 -42.052,-39.667 -50.392,-64.706 -0.69,-2.07 -0.729,1.832 -0.729,1.832 7.803,29.133 26.289,53.742 52.053,69.299 18.099,10.927 38.783,16.703 59.816,16.703 19.625,0 39.075,-5.012 56.25,-14.492 17.705,-9.775 32.621,-24.146 43.135,-41.561 15.56,-25.768 19.209,-59.434 10.015,-92.364 z"
         id="path58"
         inkscape:connector-curvature="0"
         style="fill:#ffffff" /></g><g
       id="g60"><path
         d="m 264.818,140.842 c 75.11,0 136,60.89 136,136 0,75.111 -60.89,136 -136,136 -75.111,0 -136,-60.889 -136,-136 0,-75.111 60.89,-136 136,-136 m 0,-10 c -38.998,0 -75.662,15.187 -103.238,42.763 -27.576,27.575 -42.762,64.239 -42.762,103.237 0,38.998 15.187,75.662 42.762,103.238 27.576,27.575 64.24,42.762 103.238,42.762 38.998,0 75.662,-15.187 103.237,-42.762 27.576,-27.576 42.763,-64.24 42.763,-103.238 0,-38.998 -15.187,-75.661 -42.763,-103.237 -27.575,-27.577 -64.239,-42.763 -103.237,-42.763 l 0,0 z"
         id="path62"
         inkscape:connector-curvature="0" /></g><path
       d="m 281.945,164.418 c -64.69,-32.136 -160.783,36.579 -135.623,118.081 25.524,82.599 132.168,60.165 165.459,-0.302 25.817,-46.891 5.432,-98.75 -29.836,-117.779 m -82.347,8.488 c 36.176,-17.555 86.22,-19.377 108.166,33.219 -0.253,-0.178 -25.914,-14.102 -23.986,23.704 1.052,20.424 -5.334,32.445 -27.391,51.42 -9.839,9.989 -12.817,13.003 -22.578,23.502 5.309,-35.858 10.252,-66.118 21.347,-101.93 7.374,3.089 15.751,6.603 14.44,-0.134 -0.18,-0.854 -38.056,-18.885 -38.429,-19.032 -3.039,-1.191 -5.457,1.749 -5.499,1.775 -1.818,2.373 -1.325,2.622 6.68,6.837 -4.583,12.235 -6.687,17.81 -11.333,36.927 -12.812,12.953 -26.046,26.348 -41.197,50.291 3.28,-42.255 10.35,-68.71 26.122,-97.604 3.143,-0.006 5.906,2.407 9.206,1.545 2.261,-0.592 4.875,-3.388 3.368,-4.812 -5.359,-5.062 -12.696,-3.522 -18.916,-5.708 m 24.576,152.787 c 23.729,-24.425 51.08,-44.964 74.699,-69.509 4.569,-4.756 10.814,-12.667 14.632,-23.383 1.083,41.595 -29.245,86.843 -89.331,92.892 M 162.86,300.154 c -30.146,-43.962 -10.746,-93.311 23.991,-119.35 -20.056,34.414 -26.556,66.746 -23.991,119.35 m 21.934,18.696 c -5.504,-2.858 -9.641,-5.769 -14.261,-10.051 7.974,-16.827 18.921,-37.262 47.776,-66.982 -8.183,46.371 -8.838,83.597 -8.816,83.815 -3.5,-0.339 -14.159,-1.397 -24.699,-6.782"
       id="path64"
       inkscape:connector-curvature="0"
       style="fill:#ffffff" /><path
       clip-rule="evenodd"
       d="m 513.84,301.655 c 1.765,-35.856 -3.391,-64.048 -11.58,-85.981 l -4.51,-14.181 c -0.518,-1.628 -13.213,-40.106 -60.186,-62.338 -14.332,-6.783 -27.417,-10.223 -38.89,-10.223 -10.199,0 -18.843,2.91 -23.154,7.785 -32.558,-12.489 -78.746,-15.724 -80.8,-15.862 l -33.758,-2.272 30.918,13.742 c 15.239,6.772 29.383,14.197 41.937,21.448 -6.104,-2.173 -10.104,-3.363 -10.643,-3.521 l -29.831,-8.762 24.429,19.233 c 2.765,2.176 21.206,16.646 35.101,26.378 -1.229,12.222 -0.384,24.784 0.448,37.149 1.327,19.724 2.616,38.974 -3.933,56.766 -14.555,3.143 -30.803,9.657 -48.128,19.308 -72.741,40.52 -103.631,34.799 -103.631,34.799 -0.438,1.435 -1.701,3.001 -3.359,4.554 -31.141,-10.656 -51.061,-30.59 -51.326,-30.86 l -0.544,-0.492 c -4.862,-3.891 -13.549,-5.846 -20.212,-6.812 -1.445,-5.617 -3.352,-15.607 -2.827,-27.894 4.872,-14.332 20.115,-31.971 30.02,-40.314 l 0.446,-0.376 0.273,-0.515 c 0.296,-0.561 30.124,-56.282 72.896,-83.541 l 11.703,-7.458 -13.738,1.958 c -0.284,0.04 -28.817,4.206 -66.678,18.155 l -0.589,0.217 -0.453,0.436 c -1.08,1.038 -26.672,25.965 -46.681,72.987 l -0.233,0.548 -0.006,0.596 c -0.01,0.913 -0.157,21.114 4.865,38.396 -0.307,10.745 1.105,19.778 2.513,25.933 -0.013,-0.001 -0.03,-0.002 -0.042,-0.002 l -9.199,-0.517 23.437,62.219 c -1.593,-0.139 -3.213,-0.209 -4.856,-0.209 -2.647,0 -5.078,0.185 -7.176,0.442 -4.902,-10.146 -17.469,-39.734 -18.192,-77.703 -0.524,-27.554 5.239,-54.013 17.132,-78.641 9.245,-19.146 22.254,-37.229 38.835,-54.074 17.998,-11.287 43.19,-15.214 43.464,-15.256 l 0.759,-0.114 0.61,-0.465 c 35.764,-27.236 87.458,-41.608 87.976,-41.75 l 1.326,-0.364 12.662,-26.634 -5.544,0.802 c -82.874,11.981 -133.975,53.571 -134.482,53.99 l -0.46,0.381 -13.294,25.108 c -16.587,17.1 -29.668,35.455 -39.057,54.897 -12.444,25.77 -18.475,53.449 -17.926,82.271 0.718,37.706 12.37,67.004 18.082,79.18 l -5.545,1.711 1.914,5.808 c 0.461,1.4 11.64,34.688 41.008,68.363 17.29,19.825 37.318,35.631 59.528,46.978 27.757,14.18 58.951,21.368 92.726,21.368 0.004,0 0.014,0 0.019,0 2.178,0 4.392,-0.03 6.58,-0.089 34.769,-0.938 66.371,-8.06 93.93,-21.168 16.228,-7.719 31.097,-17.535 44.446,-29.293 90.876,-52.161 94.891,-156.123 71.48,-156.225 z"
       id="path66"
       inkscape:connector-curvature="0"
       style="fill-rule:evenodd" /><path
       d="m 501.024,264.253 c -1.997,-3.629 -4.371,-7.423 -5.539,-8.411 -2.167,-1.833 -4.166,-5.5 -4.166,-5.5 -11.166,-26.167 -33.334,-53 -54.167,-51.666 -20.833,1.333 -25.166,27.999 -25.333,31.333 -0.167,3.333 1.833,8.5 2.243,10.833 0.41,2.334 -0.41,5 -0.41,5 0.924,6.705 0,20.667 0,20.667 -9.834,-35.167 -32.333,-53.834 -32.333,-53.834 2.834,13 -2.667,24.334 -2.667,24.334 -0.833,-15.334 -5.667,-18.667 -5.667,-18.667 0,0 -3.833,1.5 -3.334,6.334 1.599,15.485 -1.915,31.974 -4.32,40.925 -0.591,4.514 -1.472,9.009 -2.729,13.463 35.795,-2.651 58.166,19.219 55.377,70.201 -2.821,51.561 -51.72,80.456 -95.16,83.783 -28.49,2.183 -114.099,2.381 -162.27,-58.235 0,0 -13.283,-11.787 -12.315,-16.734 0.967,-4.948 13.249,-6.297 17.53,-11.564 0,0 13.262,4.338 14.021,2.838 0,0 0.93,-0.48 2.361,-1.287 -16.497,-6.74 -29.396,-15.498 -37.618,-21.973 h -10.292 l -7.244,-4.951 -0.967,2.196 14.466,38.406 c 1.406,2.384 21.031,35.366 46.078,62.099 -3.215,-0.201 -27.042,-20.914 -42.72,-41.368 l -2.246,-0.632 c 0,0 -6.034,-2 -11.602,-1.49 -3.038,0.278 -4.936,3.771 -6.035,6.889 6.206,12.247 16.088,28.839 30.505,45.298 16.277,18.581 35.083,33.373 55.895,43.963 25.984,13.223 55.265,19.927 87.017,19.928 2.062,0.029 4.186,-0.028 6.274,-0.085 27.999,-0.755 53.458,-5.584 76.271,-14.406 26.75,-17.669 66.896,-55.323 88.869,-129.937 0,0 4.081,4.128 7.777,10.035 0,0 9.102,-23.803 4.951,-52.67 0,0 8.688,34.135 -3.869,64.638 0,0 -4.934,-7.342 -7.578,-8.995 0,0 -17.375,65.945 -76.559,111.05 22.324,-10.736 41.826,-25.679 58.356,-44.79 37.364,-43.2 46.351,-92.429 48.479,-111.589 2.323,-20.897 2.312,-39.274 0.67,-55.429 z"
       id="path68"
       inkscape:connector-curvature="0"
       style="fill:#00a651" /><path
       d="m 321.484,156.009 c 0,0 45.389,13.331 73.334,37 0,0 -16.5,1.667 -26.5,-3.167 -10,-4.833 -46.834,-33.833 -46.834,-33.833 z"
       id="path70"
       inkscape:connector-curvature="0"
       style="fill:#6d6e71" /><path
       d="m 394.818,187.842 c 0,0 -42,-35 -100.5,-61 0,0 50,3.5 82,17.5 0,0 15,21 18.5,43.5 z"
       id="path72"
       inkscape:connector-curvature="0"
       style="fill:#6d6e71" /><path
       d="m 382.871,144.145 c -0.026,1.049 0.545,8.59 21.472,12.97 l 1.504,0.314 c 23.221,4.854 43.792,9.155 72.534,28.562 -0.451,-0.657 -0.921,-1.325 -1.409,-2.001 -7.576,-10.483 -21.305,-25.204 -43.685,-35.796 -12.802,-6.06 -24.771,-9.262 -34.612,-9.262 -9.305,0 -14.312,2.882 -15.61,4.323 l 0.042,0.308 -0.236,0.582 z"
       id="path74"
       inkscape:connector-curvature="0"
       style="fill:#00aeef" /><path
       d="m 112.318,236.956 c 5.746,-13.419 12.005,-25.025 17.981,-34.738 l 12.02,-14.376 h 11.333 l 9.667,-2.833 2.349,12.104 c -11.727,15.924 -19.033,29.086 -20.595,31.978 -7.221,6.175 -16.569,16.384 -23.512,27.099 1.927,-11.337 4.459,-25.283 12.675,-36.68 l -0.417,-1.507 c -9.401,13.041 -16.89,26.159 -20.198,38.23 -1.172,-9.251 -1.293,-17.12 -1.303,-19.277 z"
       id="path76"
       inkscape:connector-curvature="0"
       style="fill:#00aeef" /><path
       d="m 164.679,126.629 c 3.044,-2.399 21.338,-16.324 51.667,-29.619 h 11.026 l 1.28,5.667 -1.803,9.043 c -10.67,5.477 -21.546,11.927 -31.413,19.369 -3.105,0.518 -14.718,2.646 -27.321,7.401 6.995,-6.212 15.352,-13.252 22.54,-18.49 l 8.663,-7.947 c -8.598,6.266 -28.876,15.894 -39.292,23.363 l 4.653,-8.787 z"
       id="path78"
       inkscape:connector-curvature="0"
       style="fill:#00aeef" /><path
       d="m 412.651,170.566 c -6.412,0 -11.609,5.198 -11.609,11.61 0,6.411 5.197,11.609 11.609,11.609 6.412,0 11.609,-5.198 11.609,-11.609 0.001,-6.411 -5.197,-11.61 -11.609,-11.61 z m 0,20.387 c -4.848,0 -8.776,-3.93 -8.776,-8.776 0,-4.848 3.929,-8.777 8.776,-8.777 4.847,0 8.776,3.93 8.776,8.777 10e-4,4.846 -3.928,8.776 -8.776,8.776 z"
       id="path80"
       inkscape:connector-curvature="0"
       style="fill:#ffffff" /><linearGradient
       id="SVGID_1_"
       gradientUnits="userSpaceOnUse"
       x1="180.8506"
       y1="355.80859"
       x2="428.22559"
       y2="355.80859"><stop
         offset="0"
         style="stop-color:#00AEEF"
         id="stop83" /><stop
         offset="1"
         style="stop-color:#00A651"
         id="stop85" /><a:midPointStop
         offset="0"
         style="stop-color:#00AEEF" /><a:midPointStop
         offset="0.5"
         style="stop-color:#00AEEF" /><a:midPointStop
         offset="1"
         style="stop-color:#00A651" /></linearGradient><path
       clip-rule="evenodd"
       d="m 424.533,312.582 c 0,0 -9.437,-25.082 -50.624,-27.387 -41.187,-2.303 -108.573,43.064 -108.573,43.064 l -9.614,6.935 13.363,-0.808 c 0,0 -34.181,17.353 -67.12,19.035 1.909,2.445 0.221,5.725 -3.49,4.953 -3.713,-0.771 -6.803,-1.675 -9.292,-1.146 -2.488,0.529 -8.201,3.103 -8.328,3.538 -0.127,0.434 2.759,2.536 5.956,4.571 3.197,2.035 2.682,3.299 2.93,4.944 0.248,1.645 3.354,6.483 20.793,12.686 17.438,6.201 53.102,17.421 63.332,18.844 -18.051,0.378 -54.01,-9.828 -54.01,-9.828 0,0 -3.375,9.544 6.314,16.311 9.688,6.764 39.332,12.133 39.332,12.133 0,0 30.508,11.499 82.884,2.87 44.687,-7.36 93.821,-64.986 76.147,-110.715 z"
       id="path87"
       style="fill:url(#linearGradient3378);fill-rule:evenodd"
       inkscape:connector-curvature="0" /><linearGradient
       id="SVGID_2_"
       gradientUnits="userSpaceOnUse"
       x1="185.4678"
       y1="361.0654"
       x2="402.42331"
       y2="345.3299"><stop
         offset="0"
         style="stop-color:#00AEEF"
         id="stop90" /><stop
         offset="1"
         style="stop-color:#2484C6;stop-opacity:0"
         id="stop92" /><a:midPointStop
         offset="0"
         style="stop-color:#00AEEF" /><a:midPointStop
         offset="0.5"
         style="stop-color:#00AEEF" /><a:midPointStop
         offset="1"
         style="stop-color:#2484C6;stop-opacity:0" /></linearGradient><path
       d="m 501.024,264.253 c -1.997,-3.629 -4.371,-7.423 -5.539,-8.411 -2.167,-1.833 -4.166,-5.5 -4.166,-5.5 -11.166,-26.167 -33.334,-53 -54.167,-51.666 -20.833,1.333 -25.166,27.999 -25.333,31.333 -0.167,3.333 1.833,8.5 2.243,10.833 0.41,2.334 -0.41,5 -0.41,5 0.924,6.705 0,20.667 0,20.667 -9.834,-35.167 -32.333,-53.834 -32.333,-53.834 2.834,13 -2.667,24.334 -2.667,24.334 -0.833,-15.334 -5.667,-18.667 -5.667,-18.667 0,0 -3.833,1.5 -3.334,6.334 1.599,15.485 -1.915,31.974 -4.32,40.925 -0.591,4.514 -1.472,9.009 -2.729,13.463 35.795,-2.651 58.166,19.219 55.377,70.201 -2.821,51.561 -51.72,80.456 -95.16,83.783 -28.49,2.183 -114.099,2.381 -162.27,-58.235 0,0 -13.283,-11.787 -12.315,-16.734 0.967,-4.948 13.249,-6.297 17.53,-11.564 0,0 13.262,4.338 14.021,2.838 0,0 0.93,-0.48 2.361,-1.287 -16.497,-6.74 -29.396,-15.498 -37.618,-21.973 h -10.292 l -7.244,-4.951 -0.967,2.196 14.466,38.406 c 1.406,2.384 21.031,35.366 46.078,62.099 -3.215,-0.201 -27.042,-20.914 -42.72,-41.368 l -2.246,-0.632 c 0,0 -6.034,-2 -11.602,-1.49 -3.038,0.278 -4.936,3.771 -6.035,6.889 6.206,12.247 16.088,28.839 30.505,45.298 16.277,18.581 35.083,33.373 55.895,43.963 25.984,13.223 55.265,19.927 87.017,19.928 2.062,0.029 4.186,-0.028 6.274,-0.085 27.999,-0.755 53.458,-5.584 76.271,-14.406 26.75,-17.669 66.896,-55.323 88.869,-129.937 0,0 4.081,4.128 7.777,10.035 0,0 9.102,-23.803 4.951,-52.67 0,0 8.688,34.135 -3.869,64.638 0,0 -4.934,-7.342 -7.578,-8.995 0,0 -17.375,65.945 -76.559,111.05 22.324,-10.736 41.826,-25.679 58.356,-44.79 37.364,-43.2 46.351,-92.429 48.479,-111.589 2.323,-20.897 2.312,-39.274 0.67,-55.429 z"
       id="path94"
       style="fill:url(#linearGradient3380)"
       inkscape:connector-curvature="0" /><linearGradient
       id="SVGID_3_"
       gradientUnits="userSpaceOnUse"
       x1="437.58789"
       y1="420.90039"
       x2="472.81039"
       y2="357.44431"><stop
         offset="0"
         style="stop-color:#F7941E"
         id="stop97" /><stop
         offset="1"
         style="stop-color:#00A651"
         id="stop99" /><a:midPointStop
         offset="0"
         style="stop-color:#F7941E" /><a:midPointStop
         offset="0.5"
         style="stop-color:#F7941E" /><a:midPointStop
         offset="1"
         style="stop-color:#00A651" /></linearGradient><path
       d="m 481.525,309.366 c 0,0 8.688,34.135 -3.869,64.638 0,0 -4.934,-7.342 -7.578,-8.995 0,0 -17.375,65.945 -76.559,111.05 22.324,-10.736 41.826,-25.679 58.356,-44.79 37.364,-43.2 46.351,-92.429 48.479,-111.589 2.321,-20.895 2.311,-39.271 0.669,-55.427 0,0 -3.485,0.778 -2.064,4.277 1.421,3.499 -2.097,3.276 -2.932,6.075 -0.835,2.799 2.933,4.297 -2.92,6.048 -5.853,1.751 -1.346,5.14 -2.948,6.106 -5.705,3.441 -0.043,9.477 -0.043,9.477 l -3.963,3.446 c 0,0 -1.336,2.576 2.226,4.83 -3.312,0.662 0.244,4.706 -1.284,6.06 -1.528,1.353 -5.886,-4.565 -5.57,-1.206 z"
       id="path101"
       style="fill:url(#linearGradient3382)"
       inkscape:connector-curvature="0" /><linearGradient
       id="SVGID_4_"
       gradientUnits="userSpaceOnUse"
       x1="378.76559"
       y1="225.877"
       x2="425.92221"
       y2="427.25049"><stop
         offset="0.0049"
         style="stop-color:#F7941E"
         id="stop104" /><stop
         offset="1"
         style="stop-color:#00A651;stop-opacity:0"
         id="stop106" /><a:midPointStop
         offset="0.0049"
         style="stop-color:#F7941E" /><a:midPointStop
         offset="0.5"
         style="stop-color:#F7941E" /><a:midPointStop
         offset="1"
         style="stop-color:#00A651;stop-opacity:0" /></linearGradient><path
       d="m 501.024,264.253 c -1.997,-3.629 -4.371,-7.423 -5.539,-8.411 -2.167,-1.833 -4.166,-5.5 -4.166,-5.5 -11.166,-26.167 -33.334,-53 -54.167,-51.666 -20.833,1.333 -25.166,27.999 -25.333,31.333 -0.167,3.333 1.833,8.5 2.243,10.833 0.41,2.334 -0.41,5 -0.41,5 0.924,6.705 0,20.667 0,20.667 -9.834,-35.167 -32.333,-53.834 -32.333,-53.834 2.834,13 -2.667,24.334 -2.667,24.334 -0.833,-15.334 -5.667,-18.667 -5.667,-18.667 0,0 -3.833,1.5 -3.334,6.334 1.599,15.485 -1.915,31.974 -4.32,40.925 -0.591,4.514 -1.472,9.009 -2.729,13.463 35.795,-2.651 58.166,19.219 55.377,70.201 -2.821,51.561 -51.72,80.456 -95.16,83.783 -28.49,2.183 34.296,57.712 57.109,48.89 26.75,-17.669 66.896,-55.323 88.869,-129.937 0,0 4.081,4.128 7.777,10.035 0,0 9.102,-23.803 4.951,-52.67 0,0 8.688,34.135 -3.869,64.638 0,0 -4.934,-7.342 -7.578,-8.995 0,0 -17.375,65.945 -76.559,111.05 22.324,-10.736 41.826,-25.679 58.356,-44.79 37.364,-43.2 46.351,-92.429 48.479,-111.589 2.323,-20.895 2.312,-39.272 0.67,-55.427 z"
       id="path108"
       style="fill:url(#linearGradient3384)"
       inkscape:connector-curvature="0" /></g><g
     id="g110"><text
       transform="translate(589,363.3735)"
       font-size="140"
       id="text112"
       style="font-size:140px;fill:#03719d;font-family:Ubuntu-Bold">NICARAGUA</text>
<text
       transform="translate(589,236.0874)"
       id="text114"><tspan
         x="0"
         y="0"
         font-size="64"
         id="tspan116"
         style="font-size:64px;font-family:NexaLight">COMUNIDAD </tspan><tspan
         x="401.724"
         y="0"
         font-size="64"
         id="tspan118"
         style="font-size:64px;font-family:NexaBold">WORDPRESS</tspan></text>
</g><g
     id="g3422"
     transform="matrix(1.5806104,0,0,1.5806104,-2034.1616,-125.53327)"><path
       style="fill:#e04a25"
       inkscape:connector-curvature="0"
       id="path3424"
       d="m 264.818,417.842 c -77.748,0 -141,-63.252 -141,-141 0,-77.747 63.252,-141 141,-141 77.748,0 141,63.253 141,141 0,77.748 -63.252,141 -141,141 z" /><g
       id="g3426"><path
         style="fill:#ffffff"
         inkscape:connector-curvature="0"
         id="path3428"
         d="m 348.425,221.24 c -8.354,-29.917 -26.303,-54.575 -48.012,-65.961 -16.264,-8.529 -32.427,-12.854 -48.038,-12.854 -10.938,0 -20.352,1 -3,1 12.313,0 27.992,2.857 46.181,12.396 43.818,22.98 68.072,100.311 36.431,152.716 -21.035,34.842 -58.029,54.12 -95.961,54.12 -19.698,0 -39.656,-5.204 -57.749,-16.128 -23.827,-14.386 -42.052,-39.667 -50.392,-64.706 -0.69,-2.07 -0.729,1.832 -0.729,1.832 7.803,29.133 26.289,53.742 52.053,69.299 18.099,10.927 38.783,16.703 59.816,16.703 19.625,0 39.075,-5.012 56.25,-14.492 17.705,-9.775 32.621,-24.146 43.135,-41.561 15.56,-25.768 19.209,-59.434 10.015,-92.364 z" /></g><g
       id="g3430"><path
         inkscape:connector-curvature="0"
         id="path3432"
         d="m 264.818,140.842 c 75.11,0 136,60.89 136,136 0,75.111 -60.89,136 -136,136 -75.111,0 -136,-60.889 -136,-136 0,-75.111 60.89,-136 136,-136 m 0,-10 c -38.998,0 -75.662,15.187 -103.238,42.763 -27.576,27.575 -42.762,64.239 -42.762,103.237 0,38.998 15.187,75.662 42.762,103.238 27.576,27.575 64.24,42.762 103.238,42.762 38.998,0 75.662,-15.187 103.237,-42.762 27.576,-27.576 42.763,-64.24 42.763,-103.238 0,-38.998 -15.187,-75.661 -42.763,-103.237 -27.575,-27.577 -64.239,-42.763 -103.237,-42.763 l 0,0 z" /></g><path
       style="fill:#ffffff"
       inkscape:connector-curvature="0"
       id="path3434"
       d="m 281.945,164.418 c -64.69,-32.136 -160.783,36.579 -135.623,118.081 25.524,82.599 132.168,60.165 165.459,-0.302 25.817,-46.891 5.432,-98.75 -29.836,-117.779 m -82.347,8.488 c 36.176,-17.555 86.22,-19.377 108.166,33.219 -0.253,-0.178 -25.914,-14.102 -23.986,23.704 1.052,20.424 -5.334,32.445 -27.391,51.42 -9.839,9.989 -12.817,13.003 -22.578,23.502 5.309,-35.858 10.252,-66.118 21.347,-101.93 7.374,3.089 15.751,6.603 14.44,-0.134 -0.18,-0.854 -38.056,-18.885 -38.429,-19.032 -3.039,-1.191 -5.457,1.749 -5.499,1.775 -1.818,2.373 -1.325,2.622 6.68,6.837 -4.583,12.235 -6.687,17.81 -11.333,36.927 -12.812,12.953 -26.046,26.348 -41.197,50.291 3.28,-42.255 10.35,-68.71 26.122,-97.604 3.143,-0.006 5.906,2.407 9.206,1.545 2.261,-0.592 4.875,-3.388 3.368,-4.812 -5.359,-5.062 -12.696,-3.522 -18.916,-5.708 m 24.576,152.787 c 23.729,-24.425 51.08,-44.964 74.699,-69.509 4.569,-4.756 10.814,-12.667 14.632,-23.383 1.083,41.595 -29.245,86.843 -89.331,92.892 M 162.86,300.154 c -30.146,-43.962 -10.746,-93.311 23.991,-119.35 -20.056,34.414 -26.556,66.746 -23.991,119.35 m 21.934,18.696 c -5.504,-2.858 -9.641,-5.769 -14.261,-10.051 7.974,-16.827 18.921,-37.262 47.776,-66.982 -8.183,46.371 -8.838,83.597 -8.816,83.815 -3.5,-0.339 -14.159,-1.397 -24.699,-6.782" /><path
       style="fill-rule:evenodd"
       inkscape:connector-curvature="0"
       id="path3436"
       d="m 513.84,301.655 c 1.765,-35.856 -3.391,-64.048 -11.58,-85.981 l -4.51,-14.181 c -0.518,-1.628 -13.213,-40.106 -60.186,-62.338 -14.332,-6.783 -27.417,-10.223 -38.89,-10.223 -10.199,0 -18.843,2.91 -23.154,7.785 -32.558,-12.489 -78.746,-15.724 -80.8,-15.862 l -33.758,-2.272 30.918,13.742 c 15.239,6.772 29.383,14.197 41.937,21.448 -6.104,-2.173 -10.104,-3.363 -10.643,-3.521 l -29.831,-8.762 24.429,19.233 c 2.765,2.176 21.206,16.646 35.101,26.378 -1.229,12.222 -0.384,24.784 0.448,37.149 1.327,19.724 2.616,38.974 -3.933,56.766 -14.555,3.143 -30.803,9.657 -48.128,19.308 -72.741,40.52 -103.631,34.799 -103.631,34.799 -0.438,1.435 -1.701,3.001 -3.359,4.554 -31.141,-10.656 -51.061,-30.59 -51.326,-30.86 l -0.544,-0.492 c -4.862,-3.891 -13.549,-5.846 -20.212,-6.812 -1.445,-5.617 -3.352,-15.607 -2.827,-27.894 4.872,-14.332 20.115,-31.971 30.02,-40.314 l 0.446,-0.376 0.273,-0.515 c 0.296,-0.561 30.124,-56.282 72.896,-83.541 l 11.703,-7.458 -13.738,1.958 c -0.284,0.04 -28.817,4.206 -66.678,18.155 l -0.589,0.217 -0.453,0.436 c -1.08,1.038 -26.672,25.965 -46.681,72.987 l -0.233,0.548 -0.006,0.596 c -0.01,0.913 -0.157,21.114 4.865,38.396 -0.307,10.745 1.105,19.778 2.513,25.933 -0.013,-0.001 -0.03,-0.002 -0.042,-0.002 l -9.199,-0.517 23.437,62.219 c -1.593,-0.139 -3.213,-0.209 -4.856,-0.209 -2.647,0 -5.078,0.185 -7.176,0.442 -4.902,-10.146 -17.469,-39.734 -18.192,-77.703 -0.524,-27.554 5.239,-54.013 17.132,-78.641 9.245,-19.146 22.254,-37.229 38.835,-54.074 17.998,-11.287 43.19,-15.214 43.464,-15.256 l 0.759,-0.114 0.61,-0.465 c 35.764,-27.236 87.458,-41.608 87.976,-41.75 l 1.326,-0.364 12.662,-26.634 -5.544,0.802 c -82.874,11.981 -133.975,53.571 -134.482,53.99 l -0.46,0.381 -13.294,25.108 c -16.587,17.1 -29.668,35.455 -39.057,54.897 -12.444,25.77 -18.475,53.449 -17.926,82.271 0.718,37.706 12.37,67.004 18.082,79.18 l -5.545,1.711 1.914,5.808 c 0.461,1.4 11.64,34.688 41.008,68.363 17.29,19.825 37.318,35.631 59.528,46.978 27.757,14.18 58.951,21.368 92.726,21.368 0.004,0 0.014,0 0.019,0 2.178,0 4.392,-0.03 6.58,-0.089 34.769,-0.938 66.371,-8.06 93.93,-21.168 16.228,-7.719 31.097,-17.535 44.446,-29.293 90.876,-52.161 94.891,-156.123 71.48,-156.225 z"
       clip-rule="evenodd" /><path
       style="fill:#00a651"
       inkscape:connector-curvature="0"
       id="path3438"
       d="m 501.024,264.253 c -1.997,-3.629 -4.371,-7.423 -5.539,-8.411 -2.167,-1.833 -4.166,-5.5 -4.166,-5.5 -11.166,-26.167 -33.334,-53 -54.167,-51.666 -20.833,1.333 -25.166,27.999 -25.333,31.333 -0.167,3.333 1.833,8.5 2.243,10.833 0.41,2.334 -0.41,5 -0.41,5 0.924,6.705 0,20.667 0,20.667 -9.834,-35.167 -32.333,-53.834 -32.333,-53.834 2.834,13 -2.667,24.334 -2.667,24.334 -0.833,-15.334 -5.667,-18.667 -5.667,-18.667 0,0 -3.833,1.5 -3.334,6.334 1.599,15.485 -1.915,31.974 -4.32,40.925 -0.591,4.514 -1.472,9.009 -2.729,13.463 35.795,-2.651 58.166,19.219 55.377,70.201 -2.821,51.561 -51.72,80.456 -95.16,83.783 -28.49,2.183 -114.099,2.381 -162.27,-58.235 0,0 -13.283,-11.787 -12.315,-16.734 0.967,-4.948 13.249,-6.297 17.53,-11.564 0,0 13.262,4.338 14.021,2.838 0,0 0.93,-0.48 2.361,-1.287 -16.497,-6.74 -29.396,-15.498 -37.618,-21.973 h -10.292 l -7.244,-4.951 -0.967,2.196 14.466,38.406 c 1.406,2.384 21.031,35.366 46.078,62.099 -3.215,-0.201 -27.042,-20.914 -42.72,-41.368 l -2.246,-0.632 c 0,0 -6.034,-2 -11.602,-1.49 -3.038,0.278 -4.936,3.771 -6.035,6.889 6.206,12.247 16.088,28.839 30.505,45.298 16.277,18.581 35.083,33.373 55.895,43.963 25.984,13.223 55.265,19.927 87.017,19.928 2.062,0.029 4.186,-0.028 6.274,-0.085 27.999,-0.755 53.458,-5.584 76.271,-14.406 26.75,-17.669 66.896,-55.323 88.869,-129.937 0,0 4.081,4.128 7.777,10.035 0,0 9.102,-23.803 4.951,-52.67 0,0 8.688,34.135 -3.869,64.638 0,0 -4.934,-7.342 -7.578,-8.995 0,0 -17.375,65.945 -76.559,111.05 22.324,-10.736 41.826,-25.679 58.356,-44.79 37.364,-43.2 46.351,-92.429 48.479,-111.589 2.323,-20.897 2.312,-39.274 0.67,-55.429 z" /><path
       style="fill:#6d6e71"
       inkscape:connector-curvature="0"
       id="path3440"
       d="m 321.484,156.009 c 0,0 45.389,13.331 73.334,37 0,0 -16.5,1.667 -26.5,-3.167 -10,-4.833 -46.834,-33.833 -46.834,-33.833 z" /><path
       style="fill:#6d6e71"
       inkscape:connector-curvature="0"
       id="path3442"
       d="m 394.818,187.842 c 0,0 -42,-35 -100.5,-61 0,0 50,3.5 82,17.5 0,0 15,21 18.5,43.5 z" /><path
       style="fill:#00aeef"
       inkscape:connector-curvature="0"
       id="path3444"
       d="m 382.871,144.145 c -0.026,1.049 0.545,8.59 21.472,12.97 l 1.504,0.314 c 23.221,4.854 43.792,9.155 72.534,28.562 -0.451,-0.657 -0.921,-1.325 -1.409,-2.001 -7.576,-10.483 -21.305,-25.204 -43.685,-35.796 -12.802,-6.06 -24.771,-9.262 -34.612,-9.262 -9.305,0 -14.312,2.882 -15.61,4.323 l 0.042,0.308 -0.236,0.582 z" /><path
       style="fill:#00aeef"
       inkscape:connector-curvature="0"
       id="path3446"
       d="m 112.318,236.956 c 5.746,-13.419 12.005,-25.025 17.981,-34.738 l 12.02,-14.376 h 11.333 l 9.667,-2.833 2.349,12.104 c -11.727,15.924 -19.033,29.086 -20.595,31.978 -7.221,6.175 -16.569,16.384 -23.512,27.099 1.927,-11.337 4.459,-25.283 12.675,-36.68 l -0.417,-1.507 c -9.401,13.041 -16.89,26.159 -20.198,38.23 -1.172,-9.251 -1.293,-17.12 -1.303,-19.277 z" /><path
       style="fill:#00aeef"
       inkscape:connector-curvature="0"
       id="path3448"
       d="m 164.679,126.629 c 3.044,-2.399 21.338,-16.324 51.667,-29.619 h 11.026 l 1.28,5.667 -1.803,9.043 c -10.67,5.477 -21.546,11.927 -31.413,19.369 -3.105,0.518 -14.718,2.646 -27.321,7.401 6.995,-6.212 15.352,-13.252 22.54,-18.49 l 8.663,-7.947 c -8.598,6.266 -28.876,15.894 -39.292,23.363 l 4.653,-8.787 z" /><path
       style="fill:#ffffff"
       inkscape:connector-curvature="0"
       id="path3450"
       d="m 412.651,170.566 c -6.412,0 -11.609,5.198 -11.609,11.61 0,6.411 5.197,11.609 11.609,11.609 6.412,0 11.609,-5.198 11.609,-11.609 0.001,-6.411 -5.197,-11.61 -11.609,-11.61 z m 0,20.387 c -4.848,0 -8.776,-3.93 -8.776,-8.776 0,-4.848 3.929,-8.777 8.776,-8.777 4.847,0 8.776,3.93 8.776,8.777 10e-4,4.846 -3.928,8.776 -8.776,8.776 z" /><linearGradient
       y2="355.80859"
       x2="428.22559"
       y1="355.80859"
       x1="180.8506"
       gradientUnits="userSpaceOnUse"
       id="linearGradient3452"><stop
         id="stop3454"
         style="stop-color:#00AEEF"
         offset="0" /><stop
         id="stop3456"
         style="stop-color:#00A651"
         offset="1" /><a:midPointStop
         style="stop-color:#00AEEF"
         offset="0" /><a:midPointStop
         style="stop-color:#00AEEF"
         offset="0.5" /><a:midPointStop
         style="stop-color:#00A651"
         offset="1" /></linearGradient><path
       inkscape:connector-curvature="0"
       style="fill:url(#linearGradient3484);fill-rule:evenodd"
       id="path3458"
       d="m 424.533,312.582 c 0,0 -9.437,-25.082 -50.624,-27.387 -41.187,-2.303 -108.573,43.064 -108.573,43.064 l -9.614,6.935 13.363,-0.808 c 0,0 -34.181,17.353 -67.12,19.035 1.909,2.445 0.221,5.725 -3.49,4.953 -3.713,-0.771 -6.803,-1.675 -9.292,-1.146 -2.488,0.529 -8.201,3.103 -8.328,3.538 -0.127,0.434 2.759,2.536 5.956,4.571 3.197,2.035 2.682,3.299 2.93,4.944 0.248,1.645 3.354,6.483 20.793,12.686 17.438,6.201 53.102,17.421 63.332,18.844 -18.051,0.378 -54.01,-9.828 -54.01,-9.828 0,0 -3.375,9.544 6.314,16.311 9.688,6.764 39.332,12.133 39.332,12.133 0,0 30.508,11.499 82.884,2.87 44.687,-7.36 93.821,-64.986 76.147,-110.715 z"
       clip-rule="evenodd" /><linearGradient
       y2="345.3299"
       x2="402.42331"
       y1="361.0654"
       x1="185.4678"
       gradientUnits="userSpaceOnUse"
       id="linearGradient3460"><stop
         id="stop3462"
         style="stop-color:#00AEEF"
         offset="0" /><stop
         id="stop3464"
         style="stop-color:#2484C6;stop-opacity:0"
         offset="1" /><a:midPointStop
         style="stop-color:#00AEEF"
         offset="0" /><a:midPointStop
         style="stop-color:#00AEEF"
         offset="0.5" /><a:midPointStop
         style="stop-color:#2484C6;stop-opacity:0"
         offset="1" /></linearGradient><path
       inkscape:connector-curvature="0"
       style="fill:url(#linearGradient3486)"
       id="path3466"
       d="m 501.024,264.253 c -1.997,-3.629 -4.371,-7.423 -5.539,-8.411 -2.167,-1.833 -4.166,-5.5 -4.166,-5.5 -11.166,-26.167 -33.334,-53 -54.167,-51.666 -20.833,1.333 -25.166,27.999 -25.333,31.333 -0.167,3.333 1.833,8.5 2.243,10.833 0.41,2.334 -0.41,5 -0.41,5 0.924,6.705 0,20.667 0,20.667 -9.834,-35.167 -32.333,-53.834 -32.333,-53.834 2.834,13 -2.667,24.334 -2.667,24.334 -0.833,-15.334 -5.667,-18.667 -5.667,-18.667 0,0 -3.833,1.5 -3.334,6.334 1.599,15.485 -1.915,31.974 -4.32,40.925 -0.591,4.514 -1.472,9.009 -2.729,13.463 35.795,-2.651 58.166,19.219 55.377,70.201 -2.821,51.561 -51.72,80.456 -95.16,83.783 -28.49,2.183 -114.099,2.381 -162.27,-58.235 0,0 -13.283,-11.787 -12.315,-16.734 0.967,-4.948 13.249,-6.297 17.53,-11.564 0,0 13.262,4.338 14.021,2.838 0,0 0.93,-0.48 2.361,-1.287 -16.497,-6.74 -29.396,-15.498 -37.618,-21.973 h -10.292 l -7.244,-4.951 -0.967,2.196 14.466,38.406 c 1.406,2.384 21.031,35.366 46.078,62.099 -3.215,-0.201 -27.042,-20.914 -42.72,-41.368 l -2.246,-0.632 c 0,0 -6.034,-2 -11.602,-1.49 -3.038,0.278 -4.936,3.771 -6.035,6.889 6.206,12.247 16.088,28.839 30.505,45.298 16.277,18.581 35.083,33.373 55.895,43.963 25.984,13.223 55.265,19.927 87.017,19.928 2.062,0.029 4.186,-0.028 6.274,-0.085 27.999,-0.755 53.458,-5.584 76.271,-14.406 26.75,-17.669 66.896,-55.323 88.869,-129.937 0,0 4.081,4.128 7.777,10.035 0,0 9.102,-23.803 4.951,-52.67 0,0 8.688,34.135 -3.869,64.638 0,0 -4.934,-7.342 -7.578,-8.995 0,0 -17.375,65.945 -76.559,111.05 22.324,-10.736 41.826,-25.679 58.356,-44.79 37.364,-43.2 46.351,-92.429 48.479,-111.589 2.323,-20.897 2.312,-39.274 0.67,-55.429 z" /><linearGradient
       y2="357.44431"
       x2="472.81039"
       y1="420.90039"
       x1="437.58789"
       gradientUnits="userSpaceOnUse"
       id="linearGradient3468"><stop
         id="stop3470"
         style="stop-color:#F7941E"
         offset="0" /><stop
         id="stop3472"
         style="stop-color:#00A651"
         offset="1" /><a:midPointStop
         style="stop-color:#F7941E"
         offset="0" /><a:midPointStop
         style="stop-color:#F7941E"
         offset="0.5" /><a:midPointStop
         style="stop-color:#00A651"
         offset="1" /></linearGradient><path
       inkscape:connector-curvature="0"
       style="fill:url(#linearGradient3488)"
       id="path3474"
       d="m 481.525,309.366 c 0,0 8.688,34.135 -3.869,64.638 0,0 -4.934,-7.342 -7.578,-8.995 0,0 -17.375,65.945 -76.559,111.05 22.324,-10.736 41.826,-25.679 58.356,-44.79 37.364,-43.2 46.351,-92.429 48.479,-111.589 2.321,-20.895 2.311,-39.271 0.669,-55.427 0,0 -3.485,0.778 -2.064,4.277 1.421,3.499 -2.097,3.276 -2.932,6.075 -0.835,2.799 2.933,4.297 -2.92,6.048 -5.853,1.751 -1.346,5.14 -2.948,6.106 -5.705,3.441 -0.043,9.477 -0.043,9.477 l -3.963,3.446 c 0,0 -1.336,2.576 2.226,4.83 -3.312,0.662 0.244,4.706 -1.284,6.06 -1.528,1.353 -5.886,-4.565 -5.57,-1.206 z" /><linearGradient
       y2="427.25049"
       x2="425.92221"
       y1="225.877"
       x1="378.76559"
       gradientUnits="userSpaceOnUse"
       id="linearGradient3476"><stop
         id="stop3478"
         style="stop-color:#F7941E"
         offset="0.0049" /><stop
         id="stop3480"
         style="stop-color:#00A651;stop-opacity:0"
         offset="1" /><a:midPointStop
         style="stop-color:#F7941E"
         offset="0.0049" /><a:midPointStop
         style="stop-color:#F7941E"
         offset="0.5" /><a:midPointStop
         style="stop-color:#00A651;stop-opacity:0"
         offset="1" /></linearGradient><path
       inkscape:connector-curvature="0"
       style="fill:url(#linearGradient3490)"
       id="path3482"
       d="m 501.024,264.253 c -1.997,-3.629 -4.371,-7.423 -5.539,-8.411 -2.167,-1.833 -4.166,-5.5 -4.166,-5.5 -11.166,-26.167 -33.334,-53 -54.167,-51.666 -20.833,1.333 -25.166,27.999 -25.333,31.333 -0.167,3.333 1.833,8.5 2.243,10.833 0.41,2.334 -0.41,5 -0.41,5 0.924,6.705 0,20.667 0,20.667 -9.834,-35.167 -32.333,-53.834 -32.333,-53.834 2.834,13 -2.667,24.334 -2.667,24.334 -0.833,-15.334 -5.667,-18.667 -5.667,-18.667 0,0 -3.833,1.5 -3.334,6.334 1.599,15.485 -1.915,31.974 -4.32,40.925 -0.591,4.514 -1.472,9.009 -2.729,13.463 35.795,-2.651 58.166,19.219 55.377,70.201 -2.821,51.561 -51.72,80.456 -95.16,83.783 -28.49,2.183 34.296,57.712 57.109,48.89 26.75,-17.669 66.896,-55.323 88.869,-129.937 0,0 4.081,4.128 7.777,10.035 0,0 9.102,-23.803 4.951,-52.67 0,0 8.688,34.135 -3.869,64.638 0,0 -4.934,-7.342 -7.578,-8.995 0,0 -17.375,65.945 -76.559,111.05 22.324,-10.736 41.826,-25.679 58.356,-44.79 37.364,-43.2 46.351,-92.429 48.479,-111.589 2.323,-20.895 2.312,-39.272 0.67,-55.427 z" /></g></svg>