<?xml version="1.0" encoding="UTF-8" standalone="no"?>
<!-- Generator: Adobe Illustrator 16.0.4, SVG Export Plug-In . SVG Version: 6.00 Build 0)  -->

<svg
   xmlns:a="http://ns.adobe.com/AdobeSVGViewerExtensions/3.0/"
   xmlns:dc="http://purl.org/dc/elements/1.1/"
   xmlns:cc="http://creativecommons.org/ns#"
   xmlns:rdf="http://www.w3.org/1999/02/22-rdf-syntax-ns#"
   xmlns:svg="http://www.w3.org/2000/svg"
   xmlns="http://www.w3.org/2000/svg"
   xmlns:sodipodi="http://sodipodi.sourceforge.net/DTD/sodipodi-0.dtd"
   xmlns:inkscape="http://www.inkscape.org/namespaces/inkscape"
   version="1.1"
   x="0px"
   y="0px"
   width="1512px"
   height="576px"
   viewBox="0 0 1512 576"
   enable-background="new 0 0 1512 576"
   xml:space="preserve"
   id="svg3101"
   inkscape:version="0.48.5 r10040"
   sodipodi:docname="cwp-ni.nocolor.svg"><metadata
     id="metadata3223"><rdf:RDF><cc:Work
         rdf:about=""><dc:format>image/svg+xml</dc:format><dc:type
           rdf:resource="http://purl.org/dc/dcmitype/StillImage" /></cc:Work></rdf:RDF></metadata><defs
     id="defs3221" /><sodipodi:namedview
     pagecolor="#ffffff"
     bordercolor="#666666"
     borderopacity="1"
     objecttolerance="10"
     gridtolerance="10"
     guidetolerance="10"
     inkscape:pageopacity="0"
     inkscape:pageshadow="2"
     inkscape:window-width="1366"
     inkscape:window-height="702"
     id="namedview3219"
     showgrid="false"
     inkscape:zoom="0.28580696"
     inkscape:cx="355.50591"
     inkscape:cy="-65.755337"
     inkscape:window-x="0"
     inkscape:window-y="125"
     inkscape:window-maximized="1"
     inkscape:current-layer="svg3101" /><g
     id="Layer_16"><g
       id="g3104"><g
         id="g3106"><g
           id="g3108"><path
             d="M263.5,417.246c-77.748,0-141-63.252-141-141s63.252-141,141-141c77.748,0,141,63.252,141,141      S341.248,417.246,263.5,417.246z"
             id="path3110" /><g
             id="g3112"><path
               d="M263.5,140.246c75.11,0,136,60.889,136,136c0,75.11-60.89,136-136,136c-75.111,0-136-60.89-136-136       C127.5,201.135,188.389,140.246,263.5,140.246 M263.5,130.246c-38.998,0-75.662,15.187-103.238,42.762       c-27.576,27.576-42.762,64.24-42.762,103.238s15.187,75.662,42.762,103.237c27.576,27.576,64.24,42.763,103.238,42.763       s75.661-15.187,103.237-42.763S409.5,315.244,409.5,276.246s-15.187-75.662-42.763-103.238       C339.162,145.433,302.498,130.246,263.5,130.246L263.5,130.246z"
               id="path3114" /></g></g><g
           id="g3116"><path
             fill="#FFFFFF"
             d="M347.425,220.24c-8.354-29.917-26.303-54.575-48.012-65.961c-16.264-8.529-32.427-12.854-48.038-12.854      c-10.938,0-20.352,1-3,1c12.313,0,27.992,2.857,46.181,12.396c43.818,22.98,68.072,100.311,36.431,152.716      c-21.035,34.842-58.029,54.12-95.961,54.12c-19.698,0-39.656-5.204-57.749-16.128c-23.827-14.386-42.052-39.667-50.392-64.706      c-0.69-2.07-0.729,1.832-0.729,1.832c7.803,29.133,26.289,53.742,52.053,69.299c18.099,10.927,38.783,16.703,59.816,16.703      c19.625,0,39.075-5.012,56.25-14.492c17.705-9.775,32.621-24.146,43.135-41.561C352.97,286.836,356.619,253.17,347.425,220.24z"
             id="path3118" /></g><path
           fill="#FFFFFF"
           d="M280.627,163.822c-64.69-32.137-160.783,36.578-135.623,118.08c25.524,82.6,132.168,60.165,165.459-0.302     C336.279,234.709,315.895,182.851,280.627,163.822 M198.279,172.311c36.176-17.555,86.22-19.378,108.166,33.219     c-0.253-0.179-25.914-14.103-23.986,23.703c1.052,20.424-5.334,32.445-27.391,51.42c-9.839,9.989-12.816,13.004-22.578,23.502     c5.309-35.857,10.252-66.118,21.347-101.93c7.374,3.089,15.751,6.604,14.44-0.133c-0.18-0.854-38.056-18.885-38.43-19.033     c-3.038-1.191-5.456,1.75-5.498,1.775c-1.818,2.373-1.325,2.623,6.68,6.837c-4.583,12.235-6.688,17.81-11.334,36.927     c-12.812,12.953-26.046,26.348-41.197,50.291c3.28-42.255,10.349-68.709,26.123-97.604c3.143-0.006,5.906,2.407,9.205,1.545     c2.262-0.591,4.875-3.388,3.369-4.812C211.837,172.955,204.5,174.495,198.279,172.311 M222.855,325.098     c23.729-24.426,51.08-44.965,74.699-69.51c4.569-4.756,10.814-12.667,14.632-23.383     C313.27,273.8,282.941,319.047,222.855,325.098 M161.542,299.558c-30.146-43.962-10.746-93.31,23.991-119.349     C165.477,214.621,158.977,246.953,161.542,299.558 M183.476,318.253c-5.504-2.858-9.641-5.769-14.261-10.051     c7.974-16.827,18.92-37.261,47.776-66.981c-8.184,46.37-8.838,83.596-8.816,83.814     C204.674,324.696,194.016,323.639,183.476,318.253"
           id="path3120" /><path
           fill-rule="evenodd"
           clip-rule="evenodd"
           d="M512.416,301.655c1.765-35.856-3.391-64.048-11.58-85.981l-4.51-14.181     c-0.518-1.628-13.213-40.106-60.186-62.338c-14.332-6.783-27.417-10.223-38.89-10.223c-10.199,0-18.843,2.91-23.154,7.785     c-32.558-12.489-78.746-15.724-80.8-15.862l-33.758-2.272l30.918,13.742c15.239,6.772,29.383,14.197,41.937,21.448     c-6.104-2.173-10.104-3.363-10.643-3.521l-29.831-8.762l24.429,19.233c2.765,2.176,21.206,16.646,35.101,26.378     c-1.229,12.222-0.384,24.784,0.448,37.149c1.327,19.724,2.616,38.974-3.933,56.766c-14.555,3.143-30.803,9.657-48.128,19.308     c-72.741,40.52-103.631,34.799-103.631,34.799c-0.438,1.435-1.701,3.001-3.359,4.554c-31.141-10.656-51.061-30.59-51.326-30.86     l-0.544-0.492c-4.862-3.891-13.549-5.846-20.212-6.812c-1.445-5.617-3.352-15.607-2.827-27.894     c4.872-14.332,20.115-31.971,30.02-40.314l0.446-0.376l0.273-0.515c0.296-0.561,30.124-56.282,72.896-83.541l11.703-7.458     l-13.738,1.958c-0.284,0.04-28.817,4.206-66.678,18.155l-0.589,0.217l-0.453,0.436c-1.08,1.038-26.672,25.965-46.681,72.987     l-0.233,0.548l-0.006,0.596c-0.01,0.913-0.157,21.114,4.865,38.396c-0.307,10.745,1.105,19.778,2.513,25.933     c-0.013-0.001-0.03-0.002-0.042-0.002l-9.199-0.517l23.437,62.219c-1.593-0.139-3.213-0.209-4.856-0.209     c-2.647,0-5.078,0.185-7.176,0.442c-4.902-10.146-17.469-39.734-18.192-77.703c-0.524-27.554,5.239-54.013,17.132-78.641     c9.245-19.146,22.254-37.229,38.835-54.074c17.998-11.287,43.19-15.214,43.464-15.256l0.759-0.114l0.61-0.465     c35.764-27.236,87.457-41.608,87.976-41.75l1.326-0.364l12.662-26.634l-5.544,0.802c-82.874,11.981-133.975,53.571-134.482,53.99     l-0.46,0.381l-13.294,25.108c-16.587,17.1-29.668,35.455-39.057,54.897c-12.444,25.77-18.475,53.449-17.926,82.271     c0.718,37.706,12.37,67.004,18.082,79.18l-5.545,1.711l1.914,5.808c0.461,1.4,11.64,34.688,41.008,68.363     c17.29,19.825,37.318,35.631,59.528,46.978c27.757,14.18,58.951,21.368,92.726,21.368c0.004,0,0.014,0,0.019,0     c2.178,0,4.392-0.03,6.58-0.089c34.769-0.938,66.371-8.06,93.93-21.168c16.228-7.719,31.097-17.535,44.446-29.293     C531.812,405.719,535.827,301.757,512.416,301.655z"
           id="path3122" /><path
           fill="#FFFFFF"
           d="M320.061,156.009c0,0,45.389,13.331,73.334,37c0,0-16.5,1.667-26.5-3.167     C356.895,185.009,320.061,156.009,320.061,156.009z"
           id="path3124" /><path
           fill="#FFFFFF"
           d="M393.395,187.842c0,0-42-35-100.5-61c0,0,50,3.5,82,17.5     C374.895,144.342,389.895,165.342,393.395,187.842z"
           id="path3126" /><path
           fill="#FFFFFF"
           d="M381.447,144.145c-0.026,1.049,0.545,8.59,21.472,12.97l1.504,0.314     c23.221,4.854,43.792,9.155,72.534,28.562c-0.451-0.657-0.921-1.325-1.409-2.001c-7.576-10.483-21.305-25.204-43.685-35.796     c-12.802-6.06-24.771-9.262-34.612-9.262c-9.305,0-14.312,2.882-15.61,4.323l0.042,0.308L381.447,144.145z"
           id="path3128" /><path
           fill="#FFFFFF"
           d="M110.894,236.956c5.746-13.419,12.005-25.025,17.981-34.738l12.02-14.376h11.333l9.667-2.833     l2.349,12.104c-11.727,15.924-19.033,29.086-20.595,31.978c-7.221,6.175-16.569,16.384-23.512,27.099     c1.927-11.337,4.459-25.283,12.675-36.68l-0.417-1.507c-9.401,13.041-16.89,26.159-20.198,38.23     C111.025,246.982,110.904,239.113,110.894,236.956z"
           id="path3130" /><path
           fill="#FFFFFF"
           d="M163.255,126.629c3.044-2.399,21.338-16.324,51.667-29.619h11.026l1.28,5.667l-1.803,9.043     c-10.67,5.477-21.546,11.927-31.413,19.369c-3.105,0.518-14.718,2.646-27.321,7.401c6.995-6.212,15.352-13.252,22.54-18.49     l8.663-7.947c-8.598,6.266-28.876,15.894-39.292,23.363L163.255,126.629z"
           id="path3132" /><path
           fill="#FFFFFF"
           d="M411.228,170.566c-6.412,0-11.609,5.198-11.609,11.61c0,6.411,5.197,11.609,11.609,11.609     s11.609-5.198,11.609-11.609C422.837,175.765,417.64,170.566,411.228,170.566z M411.228,190.953c-4.848,0-8.776-3.93-8.776-8.776     c0-4.848,3.929-8.777,8.776-8.777s8.776,3.93,8.776,8.777C420.004,187.023,416.075,190.953,411.228,190.953z"
           id="path3134" /><path
           fill-rule="evenodd"
           clip-rule="evenodd"
           fill="#FFFFFF"
           d="M499.601,264.253c-1.997-3.629-4.371-7.423-5.539-8.411     c-2.167-1.833-4.166-5.5-4.166-5.5c-11.166-26.167-33.334-53-54.167-51.666c-20.833,1.333-25.166,27.999-25.333,31.333     c-0.167,3.333,1.833,8.5,2.243,10.833c0.41,2.334-0.41,5-0.41,5c0.924,6.705,0,20.667,0,20.667     c-9.834-35.167-32.333-53.834-32.333-53.834c2.834,13-2.667,24.334-2.667,24.334c-0.833-15.334-5.667-18.667-5.667-18.667     s-3.833,1.5-3.334,6.334c1.599,15.485-1.915,31.974-4.32,40.925c-0.591,4.514-1.472,9.009-2.729,13.463     c16.882-1.251,30.773,2.96,40.452,13.101c-7.251-3.514-16.752-6.275-29.145-6.969c-41.187-2.303-108.573,43.064-108.573,43.064     l-9.614,6.935l13.364-0.808c0,0-34.182,17.353-67.121,19.035c1.909,2.445,0.221,5.725-3.49,4.953     c-3.713-0.771-6.803-1.675-9.292-1.146c-2.488,0.529-8.201,3.103-8.328,3.538c-0.127,0.434,2.759,2.536,5.956,4.571     c3.197,2.035,2.682,3.299,2.93,4.944c0.248,1.645,3.354,6.483,20.793,12.686c17.438,6.201,53.102,17.421,63.332,18.844     c-18.051,0.378-54.01-9.828-54.01-9.828s-3.375,9.544,6.314,16.311c9.688,6.764,39.332,12.133,39.332,12.133     s30.508,11.499,82.884,2.87c20.354-3.353,41.63-17.137,57.096-35.472c-17.814,27.416-51.63,42.846-82.663,45.223     c-28.49,2.183-114.099,2.381-162.27-58.235c0,0-13.283-11.787-12.315-16.734c0.967-4.948,13.249-6.297,17.53-11.564     c0,0,13.262,4.338,14.021,2.838c0,0,0.93-0.48,2.361-1.287c-16.497-6.74-29.396-15.498-37.618-21.973h-10.292l-7.244-4.951     l-0.967,2.196l14.466,38.406c1.406,2.384,21.031,35.366,46.078,62.099c-3.215-0.201-27.042-20.914-42.72-41.368l-2.246-0.632     c0,0-6.034-2-11.602-1.49c-3.038,0.278-4.936,3.771-6.035,6.889c6.206,12.247,16.088,28.839,30.505,45.298     c16.277,18.581,35.083,33.373,55.895,43.963c25.984,13.223,55.265,19.927,87.017,19.928c2.062,0.029,4.186-0.028,6.274-0.085     c27.999-0.755,53.458-5.584,76.271-14.406c26.75-17.669,66.896-55.323,88.869-129.937c0,0,4.081,4.128,7.777,10.035     c0,0,9.102-23.803,4.951-52.67c0,0,8.688,34.135-3.869,64.638c0,0-4.934-7.342-7.578-8.995c0,0-17.375,65.945-76.559,111.05     c22.324-10.736,41.826-25.679,58.356-44.79c37.364-43.2,46.351-92.429,48.479-111.589     C501.253,298.785,501.242,280.408,499.601,264.253z"
           id="path3136" /></g><g
         id="g3138"><text
           transform="matrix(1 0 0 1 587.5762 363.373)"
           fill="#03719D"
           font-family="'Ubuntu-Bold'"
           font-size="140"
           id="text3140">NICARAGUA</text>
<text
           transform="matrix(1 0 0 1 587.5762 236.0879)"
           id="text3142"><tspan
             x="0"
             y="0"
             font-family="'NexaLight'"
             font-size="64"
             id="tspan3144">COMUNIDAD </tspan><tspan
             x="401.724"
             y="0"
             font-family="'NexaBold'"
             font-size="64"
             id="tspan3146">WORDPRESS</tspan></text>
</g></g></g><g
     id="Layer_7"><g
       id="g3149"><g
         id="g3151"><path
           fill="#E04A25"
           d="M264.818-210.531c-77.748,0-141-63.252-141-141c0-77.747,63.252-141,141-141c77.748,0,141,63.253,141,141     C405.818-273.783,342.566-210.531,264.818-210.531z"
           id="path3153" /><g
           id="g3155"><path
             fill="#FFFFFF"
             d="M348.425-407.133c-8.354-29.917-26.303-54.575-48.012-65.961c-16.264-8.529-32.427-12.854-48.038-12.854      c-10.938,0-20.352,1-3,1c12.313,0,27.992,2.857,46.181,12.396c43.818,22.98,68.072,100.311,36.431,152.716      c-21.035,34.842-58.029,54.12-95.961,54.12c-19.698,0-39.656-5.204-57.749-16.128c-23.827-14.386-42.052-39.667-50.392-64.706      c-0.69-2.07-0.729,1.832-0.729,1.832c7.803,29.133,26.289,53.742,52.053,69.299c18.099,10.927,38.783,16.703,59.816,16.703      c19.625,0,39.075-5.012,56.25-14.492c17.705-9.775,32.621-24.146,43.135-41.561C353.97-340.537,357.619-374.203,348.425-407.133      z"
             id="path3157" /></g><g
           id="g3159"><path
             d="M264.818-487.531c75.11,0,136,60.89,136,136c0,75.111-60.89,136-136,136c-75.111,0-136-60.889-136-136      C128.818-426.642,189.708-487.531,264.818-487.531 M264.818-497.531c-38.998,0-75.662,15.187-103.238,42.763      c-27.576,27.575-42.762,64.239-42.762,103.237s15.187,75.662,42.762,103.238c27.576,27.575,64.24,42.762,103.238,42.762      s75.662-15.187,103.237-42.762c27.576-27.576,42.763-64.24,42.763-103.238s-15.187-75.661-42.763-103.237      C340.48-482.345,303.816-497.531,264.818-497.531L264.818-497.531z"
             id="path3161" /></g><path
           fill="#FFFFFF"
           d="M281.945-463.955c-64.69-32.136-160.783,36.579-135.623,118.081     c25.524,82.599,132.168,60.165,165.459-0.302C337.598-393.067,317.213-444.926,281.945-463.955 M199.598-455.467     c36.176-17.555,86.22-19.377,108.166,33.219c-0.253-0.178-25.914-14.102-23.986,23.704c1.052,20.424-5.334,32.445-27.391,51.42     c-9.839,9.989-12.817,13.003-22.578,23.502c5.309-35.858,10.252-66.118,21.347-101.93c7.374,3.089,15.751,6.603,14.44-0.134     c-0.18-0.854-38.056-18.885-38.429-19.032c-3.039-1.191-5.457,1.749-5.499,1.775c-1.818,2.373-1.325,2.622,6.68,6.837     c-4.583,12.235-6.687,17.81-11.333,36.927c-12.812,12.953-26.046,26.348-41.197,50.291c3.28-42.255,10.35-68.71,26.122-97.604     c3.143-0.006,5.906,2.407,9.206,1.545c2.261-0.592,4.875-3.388,3.368-4.812C213.155-454.821,205.818-453.281,199.598-455.467      M224.174-302.68c23.729-24.425,51.08-44.964,74.699-69.509c4.569-4.756,10.814-12.667,14.632-23.383     C314.588-353.977,284.26-308.729,224.174-302.68 M162.86-328.219c-30.146-43.962-10.746-93.311,23.991-119.35     C166.795-413.155,160.295-380.823,162.86-328.219 M184.794-309.523c-5.504-2.858-9.641-5.769-14.261-10.051     c7.974-16.827,18.921-37.262,47.776-66.982c-8.183,46.371-8.838,83.597-8.816,83.815     C205.993-303.08,195.334-304.138,184.794-309.523"
           id="path3163" /><path
           fill-rule="evenodd"
           clip-rule="evenodd"
           d="M513.84-326.718c1.765-35.856-3.391-64.048-11.58-85.981l-4.51-14.181     c-0.518-1.628-13.213-40.106-60.186-62.338c-14.332-6.783-27.417-10.223-38.89-10.223c-10.199,0-18.843,2.91-23.154,7.785     c-32.558-12.489-78.746-15.724-80.8-15.862l-33.758-2.272l30.918,13.742c15.239,6.772,29.383,14.197,41.937,21.448     c-6.104-2.173-10.104-3.363-10.643-3.521l-29.831-8.762l24.429,19.233c2.765,2.176,21.206,16.646,35.101,26.378     c-1.229,12.222-0.384,24.784,0.448,37.149c1.327,19.724,2.616,38.974-3.933,56.766c-14.555,3.143-30.803,9.657-48.128,19.308     c-72.741,40.52-103.631,34.799-103.631,34.799c-0.438,1.435-1.701,3.001-3.359,4.554c-31.141-10.656-51.061-30.59-51.326-30.86     l-0.544-0.492c-4.862-3.891-13.549-5.846-20.212-6.812c-1.445-5.617-3.352-15.607-2.827-27.894     c4.872-14.332,20.115-31.971,30.02-40.314l0.446-0.376l0.273-0.515c0.296-0.561,30.124-56.282,72.896-83.541l11.703-7.458     l-13.738,1.958c-0.284,0.04-28.817,4.206-66.678,18.155l-0.589,0.217l-0.453,0.436c-1.08,1.038-26.672,25.965-46.681,72.987     l-0.233,0.548l-0.006,0.596c-0.01,0.913-0.157,21.114,4.865,38.396c-0.307,10.745,1.105,19.778,2.513,25.933     c-0.013-0.001-0.03-0.002-0.042-0.002l-9.199-0.517l23.437,62.219c-1.593-0.139-3.213-0.209-4.856-0.209     c-2.647,0-5.078,0.185-7.176,0.442c-4.902-10.146-17.469-39.734-18.192-77.703c-0.524-27.554,5.239-54.013,17.132-78.641     c9.245-19.146,22.254-37.229,38.835-54.074c17.998-11.287,43.19-15.214,43.464-15.256l0.759-0.114l0.61-0.465     c35.764-27.236,87.458-41.608,87.976-41.75l1.326-0.364l12.662-26.634L294.889-560c-82.874,11.981-133.975,53.571-134.482,53.99     l-0.46,0.381l-13.294,25.108c-16.587,17.1-29.668,35.455-39.057,54.897c-12.444,25.77-18.475,53.449-17.926,82.271     c0.718,37.706,12.37,67.004,18.082,79.18l-5.545,1.711l1.914,5.808c0.461,1.4,11.64,34.688,41.008,68.363     c17.29,19.825,37.318,35.631,59.528,46.978c27.757,14.18,58.951,21.368,92.726,21.368c0.004,0,0.014,0,0.019,0     c2.178,0,4.392-0.03,6.58-0.089c34.769-0.938,66.371-8.06,93.93-21.168c16.228-7.719,31.097-17.535,44.446-29.293     C533.236-222.654,537.251-326.616,513.84-326.718z"
           id="path3165" /><path
           fill="#00A651"
           d="M501.024-364.12c-1.997-3.629-4.371-7.423-5.539-8.411c-2.167-1.833-4.166-5.5-4.166-5.5     c-11.166-26.167-33.334-53-54.167-51.666c-20.833,1.333-25.166,27.999-25.333,31.333c-0.167,3.333,1.833,8.5,2.243,10.833     c0.41,2.334-0.41,5-0.41,5c0.924,6.705,0,20.667,0,20.667c-9.834-35.167-32.333-53.834-32.333-53.834     c2.834,13-2.667,24.334-2.667,24.334c-0.833-15.334-5.667-18.667-5.667-18.667s-3.833,1.5-3.334,6.334     c1.599,15.485-1.915,31.974-4.32,40.925c-0.591,4.514-1.472,9.009-2.729,13.463c35.795-2.651,58.166,19.219,55.377,70.201     c-2.821,51.561-51.72,80.456-95.16,83.783c-28.49,2.183-114.099,2.381-162.27-58.235c0,0-13.283-11.787-12.315-16.734     c0.967-4.948,13.249-6.297,17.53-11.564c0,0,13.262,4.338,14.021,2.838c0,0,0.93-0.48,2.361-1.287     c-16.497-6.74-29.396-15.498-37.618-21.973h-10.292l-7.244-4.951l-0.967,2.196l14.466,38.406     c1.406,2.384,21.031,35.366,46.078,62.099c-3.215-0.201-27.042-20.914-42.72-41.368l-2.246-0.632c0,0-6.034-2-11.602-1.49     c-3.038,0.278-4.936,3.771-6.035,6.889c6.206,12.247,16.088,28.839,30.505,45.298c16.277,18.581,35.083,33.373,55.895,43.963     c25.984,13.223,55.265,19.927,87.017,19.928c2.062,0.029,4.186-0.028,6.274-0.085c27.999-0.755,53.458-5.584,76.271-14.406     c26.75-17.669,66.896-55.323,88.869-129.937c0,0,4.081,4.128,7.777,10.035c0,0,9.102-23.803,4.951-52.67     c0,0,8.688,34.135-3.869,64.638c0,0-4.934-7.342-7.578-8.995c0,0-17.375,65.945-76.559,111.05     c22.324-10.736,41.826-25.679,58.356-44.79c37.364-43.2,46.351-92.429,48.479-111.589     C502.677-329.588,502.666-347.965,501.024-364.12z"
           id="path3167" /><path
           fill="#6D6E71"
           d="M321.484-472.364c0,0,45.389,13.331,73.334,37c0,0-16.5,1.667-26.5-3.167     C358.318-443.364,321.484-472.364,321.484-472.364z"
           id="path3169" /><path
           fill="#6D6E71"
           d="M394.818-440.531c0,0-42-35-100.5-61c0,0,50,3.5,82,17.5     C376.318-484.031,391.318-463.031,394.818-440.531z"
           id="path3171" /><path
           fill="#00AEEF"
           d="M382.871-484.229c-0.026,1.049,0.545,8.59,21.472,12.97l1.504,0.314     c23.221,4.854,43.792,9.155,72.534,28.562c-0.451-0.657-0.921-1.325-1.409-2.001c-7.576-10.483-21.305-25.204-43.685-35.796     c-12.802-6.06-24.771-9.262-34.612-9.262c-9.305,0-14.312,2.882-15.61,4.323l0.042,0.308L382.871-484.229z"
           id="path3173" /><path
           fill="#00AEEF"
           d="M112.318-391.417c5.746-13.419,12.005-25.025,17.981-34.738l12.02-14.376h11.333l9.667-2.833     l2.349,12.104c-11.727,15.924-19.033,29.086-20.595,31.978c-7.221,6.175-16.569,16.384-23.512,27.099     c1.927-11.337,4.459-25.283,12.675-36.68l-0.417-1.507c-9.401,13.041-16.89,26.159-20.198,38.23     C112.449-381.391,112.328-389.26,112.318-391.417z"
           id="path3175" /><path
           fill="#00AEEF"
           d="M164.679-501.744c3.044-2.399,21.338-16.324,51.667-29.619h11.026l1.28,5.667l-1.803,9.043     c-10.67,5.477-21.546,11.927-31.413,19.369c-3.105,0.518-14.718,2.646-27.321,7.401c6.995-6.212,15.352-13.252,22.54-18.49     l8.663-7.947c-8.598,6.266-28.876,15.894-39.292,23.363L164.679-501.744z"
           id="path3177" /><path
           fill="#FFFFFF"
           d="M412.651-457.807c-6.412,0-11.609,5.198-11.609,11.61c0,6.411,5.197,11.609,11.609,11.609     s11.609-5.198,11.609-11.609C424.261-452.608,419.063-457.807,412.651-457.807z M412.651-437.42c-4.848,0-8.776-3.93-8.776-8.776     c0-4.848,3.929-8.777,8.776-8.777s8.776,3.93,8.776,8.777C421.428-441.35,417.499-437.42,412.651-437.42z"
           id="path3179" /><linearGradient
           id="SVGID_1_"
           gradientUnits="userSpaceOnUse"
           x1="180.8506"
           y1="-272.5645"
           x2="428.2256"
           y2="-272.5645"><stop
             offset="0"
             style="stop-color:#00AEEF"
             id="stop3182" /><stop
             offset="1"
             style="stop-color:#00A651"
             id="stop3184" /><a:midPointStop
             offset="0"
             style="stop-color:#00AEEF" /><a:midPointStop
             offset="0.5"
             style="stop-color:#00AEEF" /><a:midPointStop
             offset="1"
             style="stop-color:#00A651" /></linearGradient><path
           fill-rule="evenodd"
           clip-rule="evenodd"
           fill="url(#SVGID_1_)"
           d="M424.533-315.791c0,0-9.437-25.082-50.624-27.387     c-41.187-2.303-108.573,43.064-108.573,43.064l-9.614,6.935l13.363-0.808c0,0-34.181,17.353-67.12,19.035     c1.909,2.445,0.221,5.725-3.49,4.953c-3.713-0.771-6.803-1.675-9.292-1.146c-2.488,0.529-8.201,3.103-8.328,3.538     c-0.127,0.434,2.759,2.536,5.956,4.571c3.197,2.035,2.682,3.299,2.93,4.944c0.248,1.645,3.354,6.483,20.793,12.686     c17.438,6.201,53.102,17.421,63.332,18.844c-18.051,0.378-54.01-9.828-54.01-9.828s-3.375,9.544,6.314,16.311     c9.688,6.764,39.332,12.133,39.332,12.133s30.508,11.499,82.884,2.87C393.073-212.437,442.207-270.062,424.533-315.791z"
           id="path3186" /><linearGradient
           id="SVGID_2_"
           gradientUnits="userSpaceOnUse"
           x1="185.4678"
           y1="-267.3076"
           x2="402.4233"
           y2="-283.0431"><stop
             offset="0"
             style="stop-color:#00AEEF"
             id="stop3189" /><stop
             offset="1"
             style="stop-color:#2484C6;stop-opacity:0"
             id="stop3191" /><a:midPointStop
             offset="0"
             style="stop-color:#00AEEF" /><a:midPointStop
             offset="0.5"
             style="stop-color:#00AEEF" /><a:midPointStop
             offset="1"
             style="stop-color:#2484C6;stop-opacity:0" /></linearGradient><path
           fill="url(#SVGID_2_)"
           d="M501.024-364.12c-1.997-3.629-4.371-7.423-5.539-8.411c-2.167-1.833-4.166-5.5-4.166-5.5     c-11.166-26.167-33.334-53-54.167-51.666c-20.833,1.333-25.166,27.999-25.333,31.333c-0.167,3.333,1.833,8.5,2.243,10.833     c0.41,2.334-0.41,5-0.41,5c0.924,6.705,0,20.667,0,20.667c-9.834-35.167-32.333-53.834-32.333-53.834     c2.834,13-2.667,24.334-2.667,24.334c-0.833-15.334-5.667-18.667-5.667-18.667s-3.833,1.5-3.334,6.334     c1.599,15.485-1.915,31.974-4.32,40.925c-0.591,4.514-1.472,9.009-2.729,13.463c35.795-2.651,58.166,19.219,55.377,70.201     c-2.821,51.561-51.72,80.456-95.16,83.783c-28.49,2.183-114.099,2.381-162.27-58.235c0,0-13.283-11.787-12.315-16.734     c0.967-4.948,13.249-6.297,17.53-11.564c0,0,13.262,4.338,14.021,2.838c0,0,0.93-0.48,2.361-1.287     c-16.497-6.74-29.396-15.498-37.618-21.973h-10.292l-7.244-4.951l-0.967,2.196l14.466,38.406     c1.406,2.384,21.031,35.366,46.078,62.099c-3.215-0.201-27.042-20.914-42.72-41.368l-2.246-0.632c0,0-6.034-2-11.602-1.49     c-3.038,0.278-4.936,3.771-6.035,6.889c6.206,12.247,16.088,28.839,30.505,45.298c16.277,18.581,35.083,33.373,55.895,43.963     c25.984,13.223,55.265,19.927,87.017,19.928c2.062,0.029,4.186-0.028,6.274-0.085c27.999-0.755,53.458-5.584,76.271-14.406     c26.75-17.669,66.896-55.323,88.869-129.937c0,0,4.081,4.128,7.777,10.035c0,0,9.102-23.803,4.951-52.67     c0,0,8.688,34.135-3.869,64.638c0,0-4.934-7.342-7.578-8.995c0,0-17.375,65.945-76.559,111.05     c22.324-10.736,41.826-25.679,58.356-44.79c37.364-43.2,46.351-92.429,48.479-111.589     C502.677-329.588,502.666-347.965,501.024-364.12z"
           id="path3193" /><linearGradient
           id="SVGID_3_"
           gradientUnits="userSpaceOnUse"
           x1="437.5879"
           y1="-207.4727"
           x2="472.8104"
           y2="-270.9287"><stop
             offset="0"
             style="stop-color:#F7941E"
             id="stop3196" /><stop
             offset="1"
             style="stop-color:#00A651"
             id="stop3198" /><a:midPointStop
             offset="0"
             style="stop-color:#F7941E" /><a:midPointStop
             offset="0.5"
             style="stop-color:#F7941E" /><a:midPointStop
             offset="1"
             style="stop-color:#00A651" /></linearGradient><path
           fill="url(#SVGID_3_)"
           d="M481.525-319.007c0,0,8.688,34.135-3.869,64.638c0,0-4.934-7.342-7.578-8.995     c0,0-17.375,65.945-76.559,111.05c22.324-10.736,41.826-25.679,58.356-44.79c37.364-43.2,46.351-92.429,48.479-111.589     c2.321-20.895,2.311-39.271,0.669-55.427c0,0-3.485,0.778-2.064,4.277s-2.097,3.276-2.932,6.075s2.933,4.297-2.92,6.048     s-1.346,5.14-2.948,6.106c-5.705,3.441-0.043,9.477-0.043,9.477l-3.963,3.446c0,0-1.336,2.576,2.226,4.83     c-3.312,0.662,0.244,4.706-1.284,6.06C485.567-316.448,481.209-322.366,481.525-319.007z"
           id="path3200" /><linearGradient
           id="SVGID_4_"
           gradientUnits="userSpaceOnUse"
           x1="378.7656"
           y1="-402.4961"
           x2="425.9222"
           y2="-201.1225"><stop
             offset="0.0049"
             style="stop-color:#F7941E"
             id="stop3203" /><stop
             offset="1"
             style="stop-color:#00A651;stop-opacity:0"
             id="stop3205" /><a:midPointStop
             offset="0.0049"
             style="stop-color:#F7941E" /><a:midPointStop
             offset="0.5"
             style="stop-color:#F7941E" /><a:midPointStop
             offset="1"
             style="stop-color:#00A651;stop-opacity:0" /></linearGradient><path
           fill="url(#SVGID_4_)"
           d="M501.024-364.12c-1.997-3.629-4.371-7.423-5.539-8.411c-2.167-1.833-4.166-5.5-4.166-5.5     c-11.166-26.167-33.334-53-54.167-51.666c-20.833,1.333-25.166,27.999-25.333,31.333c-0.167,3.333,1.833,8.5,2.243,10.833     c0.41,2.334-0.41,5-0.41,5c0.924,6.705,0,20.667,0,20.667c-9.834-35.167-32.333-53.834-32.333-53.834     c2.834,13-2.667,24.334-2.667,24.334c-0.833-15.334-5.667-18.667-5.667-18.667s-3.833,1.5-3.334,6.334     c1.599,15.485-1.915,31.974-4.32,40.925c-0.591,4.514-1.472,9.009-2.729,13.463c35.795-2.651,58.166,19.219,55.377,70.201     c-2.821,51.561-51.72,80.456-95.16,83.783c-28.49,2.183,34.296,57.712,57.109,48.89c26.75-17.669,66.896-55.323,88.869-129.937     c0,0,4.081,4.128,7.777,10.035c0,0,9.102-23.803,4.951-52.67c0,0,8.688,34.135-3.869,64.638c0,0-4.934-7.342-7.578-8.995     c0,0-17.375,65.945-76.559,111.05c22.324-10.736,41.826-25.679,58.356-44.79c37.364-43.2,46.351-92.429,48.479-111.589     C502.677-329.588,502.666-347.965,501.024-364.12z"
           id="path3207" /></g><g
         id="g3209"><text
           transform="matrix(1 0 0 1 589 -264.9995)"
           fill="#03719D"
           font-family="'Ubuntu-Bold'"
           font-size="140"
           id="text3211">NICARAGUA</text>
<text
           transform="matrix(1 0 0 1 589 -392.2856)"
           id="text3213"><tspan
             x="0"
             y="0"
             font-family="'NexaLight'"
             font-size="64"
             id="tspan3215">COMUNIDAD </tspan><tspan
             x="401.724"
             y="0"
             font-family="'NexaBold'"
             font-size="64"
             id="tspan3217">WORDPRESS</tspan></text>
</g></g></g></svg>