<?xml version="1.0" encoding="utf-8"?>
<!-- Generator: Adobe Illustrator 21.1.0, SVG Export Plug-In . SVG Version: 6.00 Build 0)  -->
<svg version="1.1" id="Layer_1" xmlns="http://www.w3.org/2000/svg" xmlns:xlink="http://www.w3.org/1999/xlink" x="0px" y="0px"
	 viewBox="0 0 396 306" style="enable-background:new 0 0 396 306;" xml:space="preserve">
<style type="text/css">
	.st0{fill:#F6891F;}
	.st1{fill:#010101;}
	.st2{fill:#FED208;}
	.st3{fill:#C2B59B;}
	.st4{opacity:0.5;fill:#FFFFFF;}
	.st5{opacity:0.3;fill:#FFFFFF;}
	.st6{opacity:0.6;fill:#FFFFFF;}
	.st7{opacity:0.1;fill:#5B4B43;}
	.st8{opacity:0.5;fill:#5B4B43;}
	.st9{opacity:0.3;fill:#5B4B43;}
	.st10{opacity:0.2;fill:#5B4B43;}
	.st11{fill:url(#SVGID_1_);}
	.st12{opacity:0.8;}
	.st13{opacity:0.4;fill:#594A42;}
	.st14{opacity:0.6;}
	.st15{opacity:0.4;fill:#FFFFFF;}
	.st16{opacity:0.2;fill:url(#SVGID_2_);}
</style>
<g>
	<path d="M297.4,85.1c-1.2-0.3-3.1-0.4-10.9-0.4c-2.5,0-5.4,0-8.4,0c-3.4,0-7.1,0-10.8,0c-5.9,0-14.2,0-20-0.4
		c-9.4-6.8-20.2-10.5-32.2-10.9c-24.7-0.8-46.7,9.4-59.6,27L125.8,50c-0.5-2.2-1.9-7.6-3.9-13c-1.6-4.3-6.6-17.2-16.6-17.2
		c-1.8,0-3.5,0.4-5.2,1.3c-3.4,1.7-5.5,4.6-6.1,8.2c-0.8,5.2,1.9,11.4,8.3,19.4c3,3.7,6.1,6.9,7.5,8.4l27.2,56
		c-2.3,1.4-3.6,3.9-3.3,6.6c0.1,1,0.4,2,1,2.9c1,1.6-9.3,6.4-5.9,14.9c1,2.6,2.4,2.6,1.8,5c-2.9,11.6-3.8,20.2-3.8,31.3
		c0,3,0.2,5.9,0.6,8.9c-0.9-0.2-1.9-0.2-2.8-0.2c-4.5,0-8.7,2-11.5,5.4c-3.1,3.8-4.1,8.8-3,14.2c2.3,11,18.9,29.4,32.1,32.6
		c1.3,0.3,2.6,0.5,3.7,0.5c3.5,0,6.5-1.5,8.2-4.2c0.6-0.9,1-1.8,1.2-2.7c9,6.2,19.5,10.1,30.5,11.2c2.4,7.8,8.8,9.1,12.8,9.1
		c6.1,0,11.3-2.5,15-7c0.3,0,0.7,0,1,0c2.6,0,5.7-0.2,9.4-0.7c-11.6,13.1-28.5,20.6-40.9,20.6c-5.2,0-12.2-1.3-16-7.7
		c-5-8.4-13-13.6-20.9-13.6c-8.3,0-14,5.9-14.3,14.5c-0.1,4.7,2.3,9.8,7.1,14.8c8.1,8.4,23.8,16.8,40.7,16.8c3.7,0,7.4-0.4,10.8-1.2
		c29.9-7.1,56.6-31,64.4-57.3c28.5-21.8,26.2-81.6,16.8-108.3c-0.7-1.9-1.4-3.7-2.1-5.4c1.1,0.1,2.3,0.2,3.4,0.2
		c2.6,0,5.2-0.4,7.6-1.1c14.8-4.4,21.5-15.4,21.4-21.5C302.1,88.3,300.2,85.8,297.4,85.1z M188.4,274.9c-2.7,0.6-5.5,1-8.5,1
		c-13.8,0-26.9-7.1-33.3-13.7c-3.2-3.3-4.3-5.9-4.2-7.3c0.1-4.1,2.3-4.6,4-4.6c3.4,0,8.5,2.6,12,8.6c4.9,8.2,13.7,12.7,24.9,12.7
		c20.9,0,45-15,56.7-35.2l0.5-0.2C230.3,254.2,210,269.8,188.4,274.9z M277.9,103.1c-1.5,0.4-3,0.7-4.6,0.7c-3.4,0-7.2-1-11.4-2.9
		c-2.1-1-4.5-0.5-6.1,1.2c-1.5,1.7-1.7,4.2-0.5,6.2c2.7,4.4,5.1,9.3,6.9,14.5c8.8,24.8,10,80.7-14.5,97.5c-1,0.7-1.8,1.7-2.1,2.9
		c-0.5,2.1-1.2,4.2-2.1,6.2c-0.1-0.2-0.2-0.4-0.2-0.6c-1.2-2.5-4.1-3.6-6.7-2.5c-9.1,3.9-16.9,4.7-21.9,4.7c-1.1,0-2.2,0-3.2-0.1
		c-1.9-0.1-3.8,0.8-4.8,2.5c-1.9,3.2-4.5,4.6-8,4.6c-2.1,0-3.1,0-3.4-4.3c-0.2-1.9-1.4-3.6-3.2-4.4c-0.6-0.3-1.3-0.4-2-0.4
		c-0.4,0-0.8,0.1-1.2,0.1c-14.3-0.9-27.4-7.2-37.2-17.8c-1.7-1.9-4.6-2.2-6.7-0.8c-2.1,1.4-2.9,4.2-1.7,6.5c0.6,1.1,1,2.2,1.4,2.9
		c0.6,1.4,0.9,3.5,0.8,4.5c-0.2,0-0.6-0.1-1-0.2c-8.8-2.1-22.9-17.3-24.4-24.7c-0.5-2.3-0.1-4.3,0.9-5.6c0.8-1,2.1-1.6,3.5-1.6
		c1.6,0,3.3,0.7,5,2c0.2,0.1,0.6,0.5,1.5,1.6c1.6,1.9,4.3,2.4,6.5,1.2c2.2-1.2,3.2-3.8,2.4-6.1c-1.9-5.7-2.9-11.6-2.9-17.6
		c0-10.8,3.1-21.3,9-30.4c1.3-2-5.4-5.5-7-7.2c-0.1-0.1-0.1-0.2-0.2-0.6c0-0.3,0.2-1,0.9-2c0.8-1,4.3-1.5,7.2-1.8
		c0.8,0.6,1.7,0.9,2.7,1.1c1.1,0.2,2.6,0.5,4.2,0.9c3.2,0.7,6.8,1.6,10.4,1.7c0,0,0.1,0,0.1,0c2.3,0,4.4-1.2,5.6-3.2
		c1.2-2,1.2-4.5,0-6.5l-9-15.4c0,0,0,0,0.1-0.1c0.3-0.3,0.5-0.6,0.7-0.9c10.1-16,28.9-25.5,50.5-25.5c0.8,0,1.5,0,2.3,0
		c10.3,0.3,19.6,3.6,27.6,9.7c0.8,0.6,1.8,1,2.8,1.1c6.2,0.4,15.7,0.5,22.3,0.5c3.7,0,7.4,0,10.8,0c3,0,5.9,0,8.4,0
		c1.5,0,2.7,0,3.7,0C288.2,97.7,284.3,101.2,277.9,103.1z"/>
	<path class="st0" d="M250.7,224.5c-6.5,24.8-32.1,48.5-61.1,55.4c-25,5.9-52.7-13.4-52.3-25.2c0.4-13.3,17.2-12.6,25.6,1.5
		c12.9,21.6,56.9,6.5,73.3-23.7L250.7,224.5z"/>
	<path class="st1" d="M180.1,282.7c-13.4,0-26.5-5.7-34.8-12.5c-6.3-5.2-9.9-10.8-9.7-15.5c0.2-5.6,3-9.6,7.8-10.8
		c6.1-1.6,15.2,1.9,21,11.5c4.7,7.9,13.3,9.5,19.6,9.3c18.9-0.4,40.7-14.5,50.7-33c0.5-0.8,1.5-1.1,2.3-0.7c0.8,0.5,1.1,1.5,0.7,2.3
		c-10.6,19.4-33.6,34.4-53.7,34.8c-10.3,0.2-18.3-3.7-22.7-11c-4.9-8.2-12.3-11.2-17.2-10c-3.2,0.8-5.1,3.5-5.2,7.6
		c-0.1,3.6,3,8.4,8.4,12.8c9.7,7.9,26.4,14.3,41.8,10.7c28.2-6.7,53.4-29.5,59.8-54.1c0.2-0.9,1.2-1.5,2.1-1.2
		c0.9,0.2,1.5,1.2,1.2,2.1c-6.8,25.9-33,49.7-62.4,56.6C186.7,282.4,183.4,282.7,180.1,282.7z"/>
	<path class="st2" d="M132.7,190.6c-9.3-7.2-19.9-0.8-17.6,10.3c1.9,9.1,17.3,26,28.3,28.6c9.5,2.3,7.6-8,6.1-11.5
		C146.8,211.9,137.6,194.4,132.7,190.6z"/>
	<path class="st1" d="M124.6,189.2c-2.5,0-4.6,1-6.1,2.8c-1.7,2.1-2.3,5.1-1.6,8.4c1.8,8.5,16.8,24.9,27,27.3
		c0.8,0.2,1.5,0.3,2.1,0.3c1.6,0,2.2-0.6,2.5-1.1c1.2-1.9,0.5-6-0.4-8.3c-2.8-6.5-11.8-23.3-16.3-26.8
		C129.4,190.2,126.9,189.2,124.6,189.2z M145.9,231.6L145.9,231.6c-0.9,0-1.9-0.1-2.9-0.4c-11.6-2.8-27.5-20.2-29.6-30
		c-0.9-4.3-0.1-8.4,2.3-11.3c2.1-2.6,5.3-4.1,8.8-4.1c3.1,0,6.3,1.2,9.2,3.4c5.7,4.4,15.3,23.4,17.3,28.2c0.9,2,2.6,7.9,0.2,11.6
		C150.4,230.1,148.9,231.6,145.9,231.6z"/>
	<g>
		<path class="st3" d="M144.3,125.9c-1.5,0.8-2.7,2.1-3.4,3.6c-22.6,51.6,5.1,115.3,57.4,113.5c46.3-1.6,68.4-63.9,44.7-114.5
			c-1.6-3.4-5.9-6.1-9.8-7.1C220.4,117.8,164.1,115.3,144.3,125.9z"/>
		<path d="M196.1,245.3c-20.6,0-38.6-9.9-50.8-28c-16.8-24.7-19.3-59.5-6.4-88.8c0.9-2,2.4-3.6,4.4-4.7h0c12-6.4,35.3-7.7,48.1-7.9
			c16.9-0.2,35.2,1.1,42.5,3.1c3.9,1.1,9.2,3.9,11.3,8.4c13.9,29.8,13,65.2-2.3,90.3c-10.4,17-26.2,26.8-44.4,27.4
			C197.6,245.3,196.9,245.3,196.1,245.3z M195.5,120.7c-19.1,0-39.9,1.8-50.1,7.3h0c-1.1,0.6-1.9,1.5-2.4,2.5
			c-12.2,27.8-9.9,61,6,84.3c11.8,17.4,29.3,26.6,49.2,25.9c16.6-0.6,31-9.5,40.6-25.2c14.6-23.8,15.4-57.6,2.1-86
			c-1.1-2.4-4.6-4.8-8.3-5.9C226.9,122,211.9,120.7,195.5,120.7z"/>
	</g>
	<path class="st4" d="M147.1,128.4c0,0-16.5,70.6,20.3,107.1c-1.8-22.4,0,0,0,0s-16.3-40.1-5.7-105.8L147.1,128.4z"/>
	<path class="st4" d="M156.2,131.7c0,0-16.5,70.6,20.3,107.1c-1.8-22.4,0,0,0,0s-16.3-40.1-5.7-105.8L156.2,131.7z"/>
	<path class="st5" d="M166.8,133.8c0,0-16.5,70.6,20.3,107.1c-1.8-22.4,0,0,0,0s-16.3-40.1-5.7-105.8L166.8,133.8z"/>
	<path class="st6" d="M142.8,127.3c0,0-16.5,70.6,20.3,107.1c-1.8-22.4,0,0,0,0s-16.3-40.1-5.7-105.8L142.8,127.3z"/>
	<g>
		<path class="st7" d="M236.5,126.5c0,0,21.9,71-11.9,110.4c0.1-22.9,0,0,0,0s13.1-41.8-2.6-108.2L236.5,126.5z"/>
		<path class="st8" d="M227.6,130.5c0,0,21.9,71-11.9,110.4c0.1-22.9,0,0,0,0s13.1-41.8-2.6-108.2L227.6,130.5z"/>
		<path class="st9" d="M217.3,133.3c0,0,21.9,71-11.9,110.4c0.1-22.9,0,0,0,0s13.1-41.8-2.6-108.2L217.3,133.3z"/>
		<path class="st10" d="M240.7,125.1c0,0,21.9,71-11.9,110.4c0.1-22.9,0,0,0,0s13.1-41.8-2.6-108.2L240.7,125.1z"/>
		<path class="st10" d="M244.1,124.7c0,0,21.9,71-11.9,110.4c0.1-22.9,0,0,0,0s13.1-41.8-2.6-108.2L244.1,124.7z"/>
		<path class="st10" d="M247.2,124.7c0,0,21.9,71-11.9,110.4c0.1-22.9,0,0,0,0s13.1-41.8-2.6-108.2L247.2,124.7z"/>
	</g>
	<g>
		<linearGradient id="SVGID_1_" gradientUnits="userSpaceOnUse" x1="141.5045" y1="125.9249" x2="239.4595" y2="125.9249">
			<stop  offset="0" style="stop-color:#603913"/>
			<stop  offset="0.6152" style="stop-color:#3C2415"/>
		</linearGradient>
		<path class="st11" d="M239.5,125c0.3,4.2-23.7,7-50,8.4c-26.2,1.4-47.7-0.9-48-5c-0.3-4.2,20.8-8.7,47-10
			C214.7,116.9,239.2,120.9,239.5,125z"/>
		<path d="M174.5,135.7c-7,0-13.5-0.3-18.9-0.9c-13.8-1.5-15.8-4.1-15.9-6.3c0-0.6,0.1-1.6,1-2.6c4.4-5,27.9-8.4,47.8-9.4
			c12.2-0.6,25.2-0.2,35.6,1.3c17,2.4,17.2,5.9,17.3,7.1l0,0c0,0.6-0.1,1.5-0.9,2.3c-2.3,2.6-12.9,6-50.9,8
			C184.4,135.5,179.3,135.7,174.5,135.7z M143.5,128.2c0.7,0.6,3.7,2.1,13.9,3c8.8,0.8,20.1,0.9,32,0.3c33.5-1.8,45.7-4.8,48-6.5
			c-3.2-2.6-23.9-6.2-48.8-4.9c-11.8,0.6-23,1.9-31.6,3.6C146.9,125.8,144.2,127.6,143.5,128.2z"/>
	</g>
	<g class="st12">
		<path d="M192.7,169.7c20-1,34.9-5,43.9-8.2c9.8-3.5,14.7-6.7,14.9-6.9l-1-1.5c0,0-5,3.3-14.6,6.7c-1.4,0.5-3,1-4.7,1.6l7.8-15.8
			l11,5.9l0.9-1.6l-10.2-5.5c4.7-2.2,7-3.8,7.3-4l-1.1-1.5c-0.2,0.1-16.4,11.9-54.2,13.7c-41.8,2-56.6-7.3-56.7-7.4l-1,1.5
			c0.2,0.2,2.7,1.8,8.3,3.5l-8.1,9.7c-1.3-0.6-1.9-1-1.9-1l-1,1.6c0.6,0.4,15,9.5,50,9.5C185.6,169.9,189.1,169.8,192.7,169.7z
			 M206.9,166.5l9-14.2l11.7,10.1C221.9,164,215,165.5,206.9,166.5z M229.1,161.3l-11.4-9.9c8-1.6,14.2-3.6,18.9-5.4L229.1,161.3z
			 M213.7,152.2l-8.9,14.1l-12.2-11.8c0,0,0.1,0,0.1,0C200.7,154.1,207.6,153.2,213.7,152.2z M188.4,154.6l-11.2,12.9l-9.3-13.2
			c3.9,0.3,8.3,0.4,13.1,0.4C183.4,154.7,185.8,154.7,188.4,154.6z M175.3,167.9c-8-0.3-14.7-1.1-20.1-2.1l10.8-11.2L175.3,167.9z
			 M164,154l-10.5,10.9l-6.9-13.8C151,152.2,156.7,153.3,164,154z M136.9,160.7l7.8-9.4l6.9,13.8c-1.7-0.3-3.2-0.7-4.5-1.1
			C142.5,162.9,139.2,161.7,136.9,160.7z M179.2,168l11.3-13.1L203,167c-3.3,0.4-6.7,0.6-10.3,0.8C187.8,168,183.4,168.1,179.2,168z
			"/>
		<path d="M240.4,218.9l-0.9-1.6c-0.2,0.1-17.4,9.2-46.6,9.2c-29.2,0-42.8-7.5-42.9-7.6l-0.9,1.6c0.3,0.1,3.1,1.7,8.8,3.4l-2.8,1.8
			l1,1.5l3.7-2.4l6.8,11.1l1.4,0.2l8.2-8.1l9.9,14.8l1.4,0.1l13.1-14.3l9.2,12.9l1.5,0l11.3-16.1l6.3,5.5l1.2-1.4l-5.7-5
			c1.2-0.3,2.3-0.6,3.3-0.9C235.9,221.3,240.2,219,240.4,218.9z M167.6,234l-5.4-8.9c3.4,0.8,7.4,1.6,12.2,2.2L167.6,234z
			 M187,240.8l-8.8-13.2c4.4,0.4,9.3,0.7,14.7,0.7c1.9,0,3.8,0,5.7-0.1L187,240.8z M210.7,239.4l-8.2-11.4c7-0.5,13-1.4,18-2.5
			L210.7,239.4z"/>
	</g>
	<path class="st12" d="M169,172.6c-19.1-1.2-32.3,22.9-15.8,38.6c16.7,15.9,38.3,1.1,38.1-15.3C191.1,183.2,179.6,173.6,169,172.6
		 M151.1,182.1c6-7.2,17.3-12.2,29.3-2.6c-0.1,0-7.8-0.7-2.4,7.5c2.9,4.4,3,7.7,0.4,13.9c-1,3.1-1.3,4.1-2.1,7.3
		c-3.5-8.4-6.3-15.6-8.4-24.5c2.1,0,4.5,0,3.3-1.4c-0.2-0.2-11.2-0.7-11.4-0.7c-0.9,0-1,0.9-1,0.9c-0.1,0.7,0,0.7,2.4,0.9
		c0.5,3.1,0.8,4.6,2.2,9.2c-1.3,4-2.6,8.2-2.9,14.9c-4.8-9.7-6.6-16.2-6.8-24c0.7-0.3,1.7,0,2.3-0.5c0.4-0.3,0.7-1.2,0.1-1.4
		C154.4,181,152.9,182,151.1,182.1 M176.8,213.6c2.3-7.6,5.9-14.7,8.1-22.3c0.4-1.5,0.8-3.8,0.3-6.5
		C190.9,194,189.9,206.8,176.8,213.6 M159.3,213.6c-12.7-7-14.7-19.7-10.1-28.6C149.1,194.5,151.9,202.2,159.3,213.6 M166.8,215.7
		c-1.6-0.1-3-0.4-4.6-0.9c-0.4-4.5-0.5-10,2.2-19.2c4.2,11,8.9,19.3,8.9,19.4C172.6,215.2,170,216,166.8,215.7"/>
	<g>
		<path class="st3" d="M144.2,126.7c0,0-3.9,1.7,0.6,4.2c4.5,2.5,27.9,3.9,48.2,2.4c20.3-1.6,45.5-4.2,46.5-8.2
			c0.4-1.5-2.4-2.6-6-3.4c-6-1.3-5.6-0.6-0.1,0.4c1.9,0.4,3.2,1.4,3.6,2.5c1.6,4-46.5,7-46.5,7S141,134.5,144.2,126.7z"/>
		<path d="M229.2,121c0.5,0,1.8,0.2,4.2,0.7c3.6,0.8,6.4,1.9,6,3.4c-1,4-26.3,6.6-46.5,8.2c-5.8,0.5-11.9,0.7-17.7,0.7
			c-14.4,0-27.3-1.2-30.5-3c-4.5-2.5-0.6-4.2-0.6-4.2c-1.8,4.5,13.5,5.4,27,5.4c10.2,0,19.4-0.5,19.4-0.5s48.1-2.9,46.5-7
			c-0.4-1-1.7-2.1-3.6-2.5C230,121.5,228.5,121,229.2,121 M229.2,118.2c-1.8,0-2.8,1.3-2.9,2.5c-0.2,2.4,2.1,3.1,3.1,3.3
			c0.4,0.1,0.9,0.2,1.5,0.4c-7.9,1.6-25.3,3.4-40.7,4.3c-0.1,0-9.2,0.5-19.2,0.5c-17.6,0-22.7-1.6-24.1-2.3l2.3-5.6l-6.2,2.7
			c-0.5,0.2-3.1,1.5-3.2,4.2c-0.1,1.9,1.1,3.6,3.6,5c4.2,2.3,19,3.3,31.8,3.3c6.2,0,12.3-0.2,17.9-0.7c43.7-3.4,48.1-6.8,49-10.3
			c0.3-1,0.1-2.1-0.5-3c-1-1.7-3.3-2.8-7.7-3.7C231.6,118.5,230,118.2,229.2,118.2L229.2,118.2z"/>
	</g>
	<path class="st13" d="M148.8,126.4c-3.8-1.5-13.4,5-12.2,11.1c1.1,6.1,8,6.1,12.6,1.5C153.8,134.4,152.5,127.9,148.8,126.4z"/>
	<path class="st2" d="M144.2,123.6c-3.8-1.5-13.4,5-12.2,11.1c1.1,6.1,8,6.1,12.6,1.5C149.2,131.6,147.9,125.1,144.2,123.6z"/>
	<path class="st1" d="M142.9,125.1c-1.8,0-5.2,1.7-7.5,4.4c-0.8,1-2.1,2.9-1.8,4.9c0.5,2.8,2.4,3.4,3.9,3.4c1.9,0,4.1-1,5.9-2.8
		c1.9-1.9,2.8-4.5,2.3-6.8c-0.3-1.5-1.1-2.6-2.1-3C143.4,125.1,143.2,125.1,142.9,125.1z M137.5,141.2L137.5,141.2
		c-3.7,0-6.5-2.4-7.2-6.2c-0.5-2.5,0.4-5.2,2.5-7.7c2.7-3.2,6.9-5.6,10.1-5.6c0.7,0,1.4,0.1,2,0.4c2.1,0.8,3.7,2.9,4.2,5.5
		c0.7,3.5-0.5,7.2-3.2,9.9C143.4,139.8,140.4,141.2,137.5,141.2z"/>
	<path class="st13" d="M220.7,204.7c2.7,9.1,2.1,14.3,0,20.8c0,0.1,0,0.2-0.1,0.3c-0.1,0.5-2.2,11.5-12.6,11.5
		c-2.1,0-3.5-0.5-4.5-1.4c-2.1-2.2-2-7.4-1.8-12.3c0.1-3.2,0.2-6.5-0.2-9.5c-0.4-2.3-0.9-4.7-1.5-7.1c-2.3-9.5-3.4-16.1,2-19.7
		c0.9-0.6,1.8-0.9,2.7-0.9C210.9,186.4,219,198.6,220.7,204.7z"/>
	<path class="st13" d="M259.1,164.4c-0.4,0-0.8-0.1-1.2-0.4l-1.4-1.2c-11.1-10-17.8-16.1-28-18.2c-6.1-1.3-13.4,0.4-19.9,1.8
		c-4.9,1.1-9.1,2-12.4,1.7c-5-0.5-9-3.2-10.2-6.8c-0.8-2.5-0.6-6.6,5-11.5c10.5-9.2,29.4-10.7,44.2-6.4
		c21.4,6.2,25.7,39.9,25.1,40.6C260.1,164.2,259.6,164.4,259.1,164.4z"/>
	<path class="st2" d="M210.6,236.1c9.3,0.8,24.6-0.9,40.1-11.6c27.9-19.2,25.2-78.7,16.4-103.5c-8.8-24.8-27.1-41.6-52.3-42.4
		c-25.2-0.8-46.2,10.3-57.3,27.9c-7.5,11.9-1.9,18.3,1.5,19.9c3.4,1.5,18-4.2,22.2-11.8c9.9,6.1,21,3.4,30.6,0.4l18.3,5.3
		c-14.5-5.7-32.9-2.3-42.4,6.1c-9.5,8.4-3.1,14.5,4.2,15.3c7.3,0.8,21.4-5.7,32.5-3.4c11.1,2.3,14.5,6.4,26.3,17c0,0,6.5,26,0,35.9
		c-11.3-6.5-31.6,0.9-37.7,14.7L210.6,236.1z"/>
	<g id="XMLID_1_">
		<path class="st2" d="M211.5,208.4c2.7,9.1,2.1,14.3,0,20.8c0,0.1,0,0.2-0.1,0.3c-0.1,0.5-2.2,11.5-12.6,11.5
			c-2.1,0-3.5-0.5-4.5-1.4c-2.1-2.2-2-7.4-1.8-12.3c0.1-3.2,0.2-6.5-0.2-9.5c-0.4-2.3-0.9-4.7-1.5-7.1c-2.3-9.5-3.4-16.1,2-19.7
			c0.9-0.6,1.8-0.9,2.7-0.9C201.7,190.1,209.8,202.3,211.5,208.4z"/>
		<path class="st1" d="M257,194.5c0.6,0.8,0.4,1.8-0.3,2.4c-0.8,0.6-1.8,0.4-2.4-0.3c-3-3.8-10.5-6.1-18-5.3
			c-5.4,0.6-15.4,3.2-21,14.3c0.2,0.6,0.4,1.1,0.5,1.6c2.9,10.1,2.2,16.2,0,23.3c-1,5.3-5.7,15.1-17.1,15.1c-3.3,0-5.9-1-7.8-2.8
			c-3.5-3.6-3.3-9.8-3.1-15.7c0.1-3,0.2-6.1-0.2-8.6c-0.3-2.1-0.9-4.3-1.4-6.7c-2.1-8.9-4.5-18.9,3.9-24.6c1.6-1.1,3.4-1.6,5.3-1.6
			c7.6,0,14.5,9.2,18.1,16.2c4.9-7.9,12.9-12.9,22.4-13.8C244.7,186.9,253.3,189.7,257,194.5z M211.5,229.2c2-6.5,2.7-11.7,0-20.8
			c-1.7-6.1-9.8-18.3-16-18.3c-1,0-1.8,0.3-2.7,0.9c-5.4,3.6-4.3,10.1-2,19.7c0.6,2.4,1.1,4.8,1.5,7.1c0.5,3,0.4,6.3,0.2,9.5
			c-0.2,5-0.3,10.1,1.8,12.3c0.9,1,2.4,1.4,4.5,1.4c10.5,0,12.6-11,12.6-11.5C211.4,229.4,211.4,229.3,211.5,229.2z"/>
	</g>
	<path class="st1" d="M178.1,104.6c-2.7,2.1-1.9,4.6,1.1,5c3.1,0.4,3.3,0.6,6.1-1.5c3.1-2.3,3.4-6.1,0-5.7
		C181.9,102.7,179.7,103.5,178.1,104.6z"/>
	<path class="st1" d="M170.1,106.1c0,1.9-1.5,3.4-3.4,3.4c-1.9,0-3.4-1.5-3.4-3.4c0-1.9,1.5-3.4,3.4-3.4
		C168.6,102.7,170.1,104.2,170.1,106.1z"/>
	<path class="st1" d="M209.8,96.6c0,1.9-1.5,3.4-3.4,3.4c-1.9,0-3.4-1.5-3.4-3.4c0-1.9,1.5-3.4,3.4-3.4
		C208.3,93.2,209.8,94.7,209.8,96.6z"/>
	<path class="st0" d="M153.3,120.7c-14.9,4.2-16.4-2.7-13-3.4c3.4-0.8,12.6-6.1,17.2-10.7L153.3,120.7z"/>
	<path class="st1" d="M145,123.7c-3.9,0-5.8-1.2-6.8-2.1c-1-1-1.4-2.4-1-3.6c0.4-1.2,1.4-2.1,2.7-2.4c3-0.7,11.8-5.7,16.3-10.2
		c0.7-0.7,1.8-0.7,2.4,0c0.7,0.7,0.7,1.8,0,2.4c-4.7,4.7-14.2,10.3-18,11.2c-0.2,0-0.2,0.1-0.2,0.1c0,0,0.1,0.2,0.5,0.4
		c0.7,0.5,3.7,1.9,11.9-0.4c0.9-0.3,1.9,0.3,2.1,1.2c0.3,0.9-0.3,1.9-1.2,2.1C150.1,123.3,147.2,123.7,145,123.7z"/>
	<path class="st1" d="M214.7,238c-1.7,0-3.2-0.1-4.3-0.2c-0.9-0.1-1.6-0.9-1.6-1.9c0.1-1,0.9-1.6,1.9-1.6c6,0.5,21.9,0.5,39-11.3
		c26.9-18.5,24.5-76.8,15.8-101.5c-9-25.5-27.5-40.6-50.8-41.3c-23.8-0.7-44.6,9.4-55.8,27.1c-3,4.8-4.1,9.2-3,12.7
		c0.8,2.5,2.5,4.1,3.8,4.7c2.2,1,15.9-3.8,19.9-11.1c0.2-0.4,0.6-0.7,1.1-0.8c0.5-0.1,0.9-0.1,1.3,0.2c9.4,5.8,20,3.1,29.1,0.2
		c0.9-0.3,1.9,0.2,2.2,1.1c0.3,0.9-0.2,1.9-1.1,2.2c-10.1,3.2-20.8,5.5-30.5,0.3c-5.4,7.5-19.2,13-23.4,11.1c-2-0.9-4.6-3.2-5.7-6.8
		c-0.9-3.1-1.1-8.3,3.4-15.5c11.8-18.7,33.8-29.4,58.8-28.7c24.7,0.7,44.4,16.6,53.9,43.5c4.1,11.6,7.5,33,5.7,54.6
		c-1.4,17.1-6.5,39.8-22.7,50.9C236.8,236.2,222.8,238,214.7,238z"/>
	<path class="st1" d="M249.9,192.8c-0.2,0-0.3,0-0.5-0.1c-0.9-0.3-1.4-1.2-1.2-2.1c1.6-5.4,2.4-11.1,2.4-16.9c0-6.4-1-12.7-3-18.7
		c-0.3-0.9,0.2-1.9,1.1-2.2c0.9-0.3,1.9,0.2,2.2,1.1c2.1,6.4,3.2,13,3.2,19.8c0,6.1-0.9,12.1-2.6,17.8
		C251.4,192.3,250.7,192.8,249.9,192.8z"/>
	<path class="st0" d="M244.6,89.3c-6.9-0.6-1.5,4.6,0.8,6.5c2.3,1.9,18.7,16.8,34,12.2c15.3-4.6,19.9-17.2,16.8-18
		C293.1,89.3,258.7,90.5,244.6,89.3z"/>
	<path class="st1" d="M243.2,91c0.5,0.7,1.5,2,3.3,3.5l0.4,0.4c11.9,10.2,20.9,12.3,26.4,12.3l0,0c1.9,0,3.8-0.3,5.6-0.8
		c8.4-2.5,13.5-7.7,15.6-11.7c0.8-1.5,0.9-2.5,0.9-3c-1.1-0.1-4.1-0.2-8.8-0.2c-2.5,0-5.4,0-8.4,0c-3.5,0-7.2,0-10.9,0
		c-6.8,0-16.6-0.1-22.7-0.5C243.9,91,243.5,91,243.2,91z M273.3,110.6L273.3,110.6c-6,0-15.9-2.3-28.6-13.1l-0.4-0.3
		c-5.6-4.7-4.9-6.8-4.6-7.5c0.5-1.3,1.8-2,4-2c0.3,0,0.7,0,1.1,0c6,0.5,15.7,0.5,22.4,0.5c3.7,0,7.4,0,10.9,0c3.1,0,5.9,0,8.5,0
		c7.3,0,9.3,0.1,10.1,0.3c1.3,0.3,2.2,1.5,2.2,3.2c0.1,4.2-5.5,14.1-18.9,18.1C277.8,110.3,275.5,110.6,273.3,110.6z"/>
	<path class="st1" d="M254.5,159.8c-0.4,0-0.8-0.1-1.2-0.4l-1.4-1.2c-11.1-10-17.8-16.1-28-18.2c-6.1-1.3-13.4,0.4-19.9,1.8
		c-4.9,1.1-9.1,2-12.4,1.7c-5-0.5-9-3.2-10.2-6.8c-0.8-2.5-0.6-6.6,5-11.5c10.5-9.2,29.9-12.1,44.2-6.4c0.9,0.4,1.3,1.3,1,2.2
		c-0.4,0.9-1.3,1.3-2.2,1c-13.2-5.2-31-2.7-40.6,5.8c-3.3,2.9-4.7,5.7-4,7.9c0.7,2.2,3.6,4,7.3,4.4c2.7,0.3,6.9-0.6,11.3-1.6
		c6.8-1.5,14.5-3.2,21.3-1.8c11.1,2.3,18.5,9,29.6,19l1.4,1.2c0.7,0.6,0.8,1.7,0.1,2.4C255.5,159.6,255,159.8,254.5,159.8z"/>
	<path d="M167,127.5l-44.6-76.2c-0.4-1.6-1.7-7.3-3.9-13c-3.8-10-8.1-14.8-13.2-14.8c-1.2,0-2.4,0.3-3.6,0.9c-2.3,1.2-3.7,3-4.1,5.5
		c-1.3,8.4,11.7,21.7,15.3,25.1l35.3,72.8c0.4,0.8,1.2,1.4,2.1,1.5c1.3,0.2,2.9,0.5,4.6,0.9c3,0.7,6.4,1.5,9.7,1.6c0,0,0,0,0.1,0
		c1,0,1.9-0.5,2.4-1.4C167.5,129.5,167.5,128.4,167,127.5z M118.5,47.5c-0.1-0.2-0.1-0.4-0.2-0.6C118.4,47.1,118.4,47.3,118.5,47.5z
		 M119.7,52.2c0,0,0-0.1,0-0.1C119.6,52.1,119.7,52.2,119.7,52.2z M119.6,51.9c0-0.1,0-0.2-0.1-0.2
		C119.6,51.8,119.6,51.9,119.6,51.9z M119.5,51.5c0-0.1,0-0.2-0.1-0.3C119.5,51.3,119.5,51.4,119.5,51.5z M119.4,50.9
		c0-0.1-0.1-0.2-0.1-0.4C119.3,50.7,119.3,50.8,119.4,50.9z M119.2,50.2c0-0.1-0.1-0.3-0.1-0.4C119.1,49.9,119.2,50.1,119.2,50.2z
		 M119,49.4c0-0.2-0.1-0.3-0.1-0.5C118.9,49.1,119,49.2,119,49.4z M118.8,48.5c0-0.2-0.1-0.4-0.1-0.5
		C118.7,48.1,118.7,48.3,118.8,48.5z M118.2,46.5c-0.1-0.2-0.1-0.4-0.2-0.7C118.1,46,118.1,46.3,118.2,46.5z M117.9,45.3
		c-0.1-0.2-0.1-0.5-0.2-0.7C117.7,44.9,117.8,45.1,117.9,45.3z M117.5,44.2c-0.1-0.4-0.3-0.8-0.4-1.2
		C117.2,43.4,117.4,43.8,117.5,44.2z M117.1,42.8c-0.1-0.4-0.3-0.8-0.4-1.1C116.8,42.1,116.9,42.5,117.1,42.8z M116.5,41.3
		c-0.1-0.3-0.2-0.5-0.3-0.8C116.3,40.7,116.4,41,116.5,41.3z M116,39.9c-0.1-0.3-0.2-0.5-0.3-0.8C115.9,39.4,116,39.7,116,39.9z
		 M115.5,38.6c-0.1-0.2-0.2-0.5-0.3-0.7C115.4,38.1,115.5,38.4,115.5,38.6z M115,37.3c-0.1-0.2-0.2-0.5-0.3-0.7
		C114.8,36.9,114.9,37.1,115,37.3z M114.5,36.1c-0.1-0.2-0.2-0.5-0.3-0.7C114.3,35.6,114.4,35.9,114.5,36.1z M113.9,34.9
		c-0.1-0.2-0.2-0.4-0.3-0.7C113.7,34.4,113.8,34.6,113.9,34.9z M113.3,33.7c-0.1-0.2-0.2-0.4-0.3-0.6
		C113.1,33.2,113.2,33.4,113.3,33.7z M112.7,32.5c-0.1-0.2-0.2-0.4-0.4-0.6C112.4,32.1,112.5,32.3,112.7,32.5z M112,31.4
		c-0.1-0.2-0.3-0.4-0.4-0.6C111.7,31,111.9,31.2,112,31.4z M110.6,29.5c-0.2-0.3-0.5-0.6-0.7-0.8C110.1,28.9,110.4,29.2,110.6,29.5z
		 M111.3,30.4c-0.2-0.2-0.3-0.4-0.5-0.6C111,30,111.2,30.2,111.3,30.4z M105.5,26.3c-0.2,0-0.4,0-0.6,0c0.1,0,0.2,0,0.3,0
		C105.3,26.3,105.4,26.3,105.5,26.3z M109.8,28.6c-0.2-0.2-0.4-0.4-0.7-0.6C109.4,28.2,109.6,28.4,109.8,28.6z M108.9,27.8
		c-0.2-0.1-0.3-0.3-0.5-0.4C108.5,27.5,108.7,27.6,108.9,27.8z M108,27.2c-0.2-0.1-0.3-0.2-0.5-0.3C107.7,27,107.9,27.1,108,27.2z
		 M107.2,26.7c-0.2-0.1-0.3-0.1-0.5-0.2C106.9,26.6,107,26.7,107.2,26.7z M106.4,26.4c-0.2,0-0.3-0.1-0.5-0.1
		C106,26.4,106.2,26.4,106.4,26.4z M103.8,26.5c-0.3,0.1-0.6,0.2-0.9,0.3C103.2,26.7,103.5,26.6,103.8,26.5z M104.8,26.3
		c-0.3,0-0.5,0.1-0.8,0.2C104.2,26.4,104.5,26.3,104.8,26.3z"/>
	<g>
		<path class="st3" d="M164.6,128.9l-44.9-76.6c0,0-6.5-30.7-16.8-25.5c-10.1,5.1,12.2,26.4,12.2,26.4l36.3,74.8
			C155.2,128.6,159.8,128.8,164.6,128.9z"/>
	</g>
	<path class="st14" d="M123.8,74c3-0.5,5.9-1.4,8.7-2.8c0.7-0.3,0.1-1.3-0.6-1c-2.7,1.3-5.5,2.2-8.4,2.7
		C122.7,73,123.1,74.2,123.8,74L123.8,74z"/>
	<path class="st14" d="M125.2,75.8c3-0.5,5.9-1.4,8.7-2.8c0.7-0.3,0.1-1.3-0.6-1c-2.7,1.3-5.5,2.2-8.4,2.7
		C124.2,74.9,124.5,76,125.2,75.8L125.2,75.8z"/>
	<path class="st14" d="M142,112.3c3.9-0.7,7.8-1.9,11.4-3.6c0.7-0.3,0.1-1.3-0.6-1c-3.5,1.7-7.3,2.8-11.1,3.4
		C141,111.3,141.3,112.4,142,112.3L142,112.3z"/>
	<path class="st14" d="M143.5,114.4c3.8-0.6,7.7-1.7,11.2-3.4c0.7-0.3,0.1-1.3-0.6-1c-3.4,1.6-7.2,2.6-10.9,3.3
		C142.4,113.4,142.7,114.5,143.5,114.4L143.5,114.4z"/>
	<path class="st15" d="M150.6,126.4l-33-73.9c0,0-16.4-19-12.6-26.2c0,0-8.7,0.8-2.3,12c6.4,11.2,12.3,14.9,12.3,14.9L150.6,126.4z"
		/>
	<path class="st5" d="M141,106.5l-21.9-54c0,0-17.9-19-14-26.2c0,0-7.3,0.8-0.8,12c6.4,11.2,12.3,14.9,12.3,14.9L141,106.5z"/>
	<linearGradient id="SVGID_2_" gradientUnits="userSpaceOnUse" x1="119.1279" y1="90.8322" x2="164.5639" y2="90.8322">
		<stop  offset="0" style="stop-color:#603913"/>
		<stop  offset="0.6152" style="stop-color:#3C2415"/>
	</linearGradient>
	<path class="st16" d="M119.1,52.5c0,0,27.4,42.7,45.4,76.4c-2.9,0.7-7.2-0.4-7.2-0.4S141.9,95.6,119.1,52.5z"/>
</g>
</svg>
